<svg xmlns="http://www.w3.org/2000/svg" viewBox="0 0 53.251 53.251"><path d="M12.61 21.022h28.03a1.169 1.169 0 000-2.335h-.06c-.528-6.41-5.371-11.588-11.619-12.637V4.38h-2.044V.292c0-.159-.131-.292-.292-.292s-.292.133-.292.292v4.087H24.29v1.67c-6.248 1.049-11.09 6.227-11.621 12.637h-.059a1.169 1.169 0 000 2.336zM46.48 50.332h-1.46V36.9h1.46a1.461 1.461 0 000-2.92H6.771c-.806 0-1.46.657-1.46 1.46 0 .81.654 1.46 1.46 1.46h1.46v13.432h-1.46c-.806 0-1.46.656-1.46 1.459 0 .811.654 1.46 1.46 1.46H46.48c.808 0 1.46-.649 1.46-1.46 0-.801-.652-1.459-1.46-1.459zm-5.548 0H38.48V36.9h2.452v13.432zM25.399 36.9h2.452v13.432h-2.452V36.9zm-4.087 13.432h-2.453V36.9h2.453v13.432zM31.94 36.9h2.452v13.432H31.94V36.9zm-19.622 0h2.452v13.432h-2.452V36.9zM10.859 25.986h1.471c0 .022-.012.042-.012.058v6.302h2.92v-6.302c0-.021-.011-.042-.011-.058h1.387c0 .022-.011.042-.011.058v6.302h2.919v-6.302c0-.021-.011-.042-.011-.058h1.387c0 .022-.011.042-.011.058v6.302h2.92v-6.302c0-.021-.012-.042-.012-.058h1.387c0 .022-.012.042-.012.058v6.302h2.92v-6.302c0-.021-.012-.042-.012-.058h1.387c0 .022-.012.042-.012.058v6.302h2.92v-6.302c0-.021-.011-.042-.011-.058h1.387c0 .022-.012.042-.012.058v6.302h2.92v-6.302c0-.021-.012-.042-.012-.058h1.387c0 .022-.011.042-.011.058v6.302h2.92v-6.302c0-.021-.012-.042-.012-.058H42.4c.808 0 1.46-.651 1.46-1.46 0-.807-.652-1.46-1.46-1.46H10.868a1.46 1.46 0 00-1.46 1.46c0 .805.644 1.46 1.451 1.46z"/></svg>