<svg style="position:absolute;width:0;height:0" xmlns="http://www.w3.org/2000/svg" overflow="hidden"><defs><symbol id="icon-state-AK" viewBox="0 0 98 80"><path d="M-14.4 66l.48-.08-.24-.16-.24.16V66zm-4.32-3.28l.72 1.68.16.16-.16-.32zm-1.2-1.04l.24.32h.24zm6.64 2.96l.16-.08-.16-.16v.24zm5.68 1.52h-.24v.64h.48zm.56.24l-.08.4h.24v-.4h-.16zm.32 0h-.32l.32.4v-.4zm-4.32-1.36l-.8-.4.32 1.28 1.04-.72zm1.52.96v-.64l-1.52.4v.16zm3.44.4v-.24l-.24.24h.24zm-2.08-.64l-.32-.32-.72 1.36h1.04v-1.04zm-10.88-4.08h.4l-.08-.32-.32.08v.24zm2.48 1.04l.56-.08-.32-.64-.64.4zm10.08 3.2l-.24-.48-.16.32.16.24zm-14.24-5.68l.08-.24-1.12.24v.32zm19.68 6.96l-.88-.16.88.64 1.36.24-.88-.24zm-22.72-9.6v-.16l-.16-.24v.24zm25.68 9.84v-.24l-.56.24h.56zm-3.6-1.52l-3.44.48 1.44.64h1.36zm-26.56-11.28l-.32-.08h-.56l.56.48zM4.88 67.68v-.24l-.16-.08-.24.08zm1.36-.24v-.24l-.56.24h.56zm1.28-.08l.4-.16-.4-.16-.24.32h.24zm.96-.56l-.56.24.56.32v-.56zm-37.36-14.96l-1.2-.08 1.6 1.44-.32-.8zM8.56 66.8l.16-.4h-.16v.4zm4.48-1.6l-3.12 2.24.8-.08L13.28 66zm4.4-.16l-.4.16v.24l.24-.08zm-2.48.96l-1.68.16h2.4l1.6-1.6-1.76-.16.56.96zm5.44-1.44l-.56-.16-.24.16.56.08zM18.32 64l-.32-.16v.56h.72zm.72-.16h-.32l.16.56.4-.16zm7.12.56l-.32-.16v.16h.32zm-.64-.4l-.24-.16.24.56V64zm66-8.08v.32l.56.24-.24-.56h-.32zm-58.32 6.8v.48l.24-.16zm-6.32-.32V62l-.48.24zm67.76-7.36v-.48l-.48.48h.48zm-71.12 6.4l-1.84.4-.96 1.44 4.16-.24-.08-.4-.56-.24-.16-.96h-.56zm9.68.96h-.32v.32h.32v-.32zm-5.28-.72h-.4l.16.32.48-.16zm63.12-6.64v.56h.08l.4-.16zm-62.16 6.4h-.32l.32.24v-.24zm4 .56v-.32l-.4.72zm57.6-6.4v.64l1.36.64zm3.68-1.52l-.32-.24-.32-.08.16 1.12zm-62.08 7.76l-.8.16-.08 1.04L32.32 62zm57.68-6.96l-.24.16.16.4.4-.24zm-58.72 6.24h-.16l-.24.24.4.32v-.56zm-.72.24v-.48l-.4 1.12.72-.16zm62.16-7.92l.64.88h.16v-.56zm-3.36 1.2l-.24.56.48.24.16-.8h-.4zm-57.84 5.92l-.24.32.56.24v-.24zm58.08-6l.16-.24h-.4v.24h.24zm.32-.24v-.24h-.32zm-.96 0v.32l.16-.08zm-55.04 5.52v-.24h-.24zm55.04-6.64l.16.32.48-.32h-.64zm-54 6h-.4v.4h.64zm54.64-6.16l-.24.16h.24v-.16zm-2.32.16l-.16.24.4.08.08-.32h-.32zM41.76 60v-.4h-.24l-.4.4h.64zm46.32-6.8l-.24-.16v.16h.24zm5.2-2.16l-.8 2.16 1.04.32V52.4l.88 1.36v-1.92zm-4.56.72l-.56.4v.88l.72-.64zm1.6-.72v-.4l-.24.8 1.44.32-.4-.72h-.8zm-2.24.08l.08.64h.56l.8 1.04-.16.96.8-.32-.08 1.44 1.04-.24 2.16 1.68-.8-2.24-1.6-.24.16-.64 1.04.24zm1.68-.72l-.4.24-.24.24.64.16v-.64zm1.12 0l-.56-.32 1.2.96.16-.24zM45.2 57.2l-.32-.16-.08.16.4.24v-.24zm-6.72-.32h-.4l-.16.16h.8zm5.6 0l-.64.8.64-.48v-.32zm.72 0l-.32.16-.24.16h.4zm-32.88-3.84l.08.16h.48zm76.96-4l.24 1.2h.4l.24-.56zm-2.16.64l-.72.4 1.28 2.96.08-2.64zm0-1.04l.88 2.24 1.12-.24-.88-1.52 1.04.72-.16-1.2h-2zm-39.92 6l-.56.4.24.4.88-.56zm-35.12-4v-.24l-.8.24.32.24zm71.28-1.6h-.64l.4 1.2.56-.16zm.32-.64l.72 2.24 1.04.16 1.04 1.76-.64-1.92-1.12-2zm-35.2 3.2l-.16.16.4.08v-.08zm-1.52.24l-.48-.24-.16.16.64.4v-.32zm1.04-.08l.08-.16h-.32v.16h.24zm-.56 0l-.56-.32.56.72-.96.88-.88-.64.48 1.92-.16-.24-.32-.32v-.56h-.4l.08-.16-.24-.24-1.2 1.04 1.04 2.08.32-1.04h.72l-.72 1.44 2-2.48 1.12.24-.64-.64 1.44-.24zm33.52-5.04l-.32-.32.32 1.12v-.8zm-34 4.32l-.32.08 1.12.32h-.32l-.24-.4h-.24zm2.8-.24l.16-.16v-.24zm32.32-5.2l-.64.8-.48-.64-.08.24 1.12 1.04-.8-.32v.8l1.52 1.12.4-.24-.8-1.12 2.32.8-.56-1.12-2.08-.56 1.92.32v-.96l-1.6.64zM47.6 50.4l-.24-.16h-.08l.08.16h.24zm36.64-5.76H84l-.32.16.8.16zm-.96 0l2 3.2-.24 1.6 1.28-1.68-1.84-2.4 1.84 1.36-1.6-1.76zM47.6 50.4l-1.04.48 1.04.72 1.68-1.36-1.6-.56-.32.4.24.16v.16zm.32-.72l.16-.56v-.08l-.4.4zm-16.64-1.44l.4-.48-.8.64zm17.04-.4v-.08l-.24.32.48-.24h-.24zm3.12-1.6l.24-.24-.24-.24-.16.48h.16zm-5.2.16V46l-.32.24v.16h.32zm6.08-.8h-.24v.16h.24v-.16zm9.6-4.16v-.48l-.4.48h.4zm-39.76-1.28l-2.8.08 2.32 2.4 1.2-.8zm36.96 1.12V42l.72-.56v-.16l-.32.16zm-10.4 1.04l.56-.48-.32-.24-.4.72h.16zm-38.08-4.48l-1.12-1.36.4.96zm49.2 3.12l.8-.48v-.24l-1.12 1.04zm-3.52-.72v.48l.16-.24zm-.24.48v-.48h-.32v.24zm1.76-1.12h-.32l.32.24v-.24zm-1.68 0l-.08.32.08.24.16-.24zM16.88 27.68l-.16-.24-.4-.32.56.72v-.16zm13.76 1.04h-.32l-.24.32.56.08v-.4zm-14.48-2.48l-.88-1.2-.56 1.52.56.56.72-.56h.16l.88 1.12-.16.32.8.4.32.72 1.6-.72-2.32-2.4zm8.08-7.2l.56-.24.08-.24zm.88-.64l.72-.56h-.16zm2.16-.96l-.32.16h.24zm.24 0l.8-.32.16-.08zm22.56 27.6l.64-.4-.48 1.12-.96.24.24.96 1.36-.24.56-1.36 1.28-.4v-.64l.56.48v-1.2l.32 1.04.24-1.76.32 1.2 1.52-.64v-1.2l.8-.64h-1.36l.4-.32.56-.32-1.2-.8 1.6-1.92v1.68l.4-1.12.64.8 1.76-.96-.8.96h1.2l-.8.56.96-.32-.32.4 1.36-.08-.24.56-.24.24 1.12.48 1.04-1.84-.24 2 1.52.64 4.88-.64.4-.64.24.64-.08.4 2 .24 1.44-1.76 1.28.8-.56.96-.56-1.52-.4 1.92 7.44 3.6.88-1.28-1.52-1.36-1.04.48v-1.04l2 .96-.32-1.28.88.32.24 2 .88-.4 1.04.4-1.92-4.32 2.32 3.6H84l.72.48.32-1.52v1.76l.64-.24.64 1.2v-.56l1.52.96-.24.32-1.12-.48-.16.16 1.52.64v.24l-.24.48-.56.08v.4l1.68-.16 1.04 1.36 2.64.96v.24l-.88.24.32 2.32 1.68-2.8 1.76 2.8-.4.64.64-1.04-.24 2.24 1.2-1.2-1.2-4-4.16-.72-5.04-5.68-5.04-3.6-1.84.88-.32 1.92-.24.08-1.12 1.36-4.4-3.92v-.96l-3.44.72L62.56 4.8l-3.04-1.28-2.48 1.04-6.16-1.52-2.16.48-1.92-.32.8-.16-.32-1.12-2.48.32L43.68.8l-1.2 1.44-.32-.4.72-1.04-.96-.88-1.92 2-3.12.56 1.2.56-.8 1.2-.56-.72.4-.88L34.08 4l.24-.72L31.6 7.6l-3.92.24-.8 1.76 3.04 3.44.4 2.08h2.16v.32l-.16.64 1.36.16-.24 1.52 1.92-.16v.96l-2.16-.4-.88-2.08.32 2.72 1.12-.24.24.88-4.16-.24-.72-.64.96-1.44v-.08h-.8l-2.4.56.32.8-1.52-.24-2 1.28h-1.2l1.2 1.2 1.84.96-1.28-.16v.48l.56.96.08 1.36 4.96 1.36.08-.96.4 1.36 2.88-2.16.56 1.12L32.48 26l1.2 2.24-1.04 1.2-1.76-.32-2.96 1.92.24-.8-.96-.24v.64l-1.36.56.32 1.6-.88-.4-1.2 2.4h-1.04l.64 2.72.8-.88 1.04-.56-.4.4h-.24l-.08.16h-.32l-.08.56-.32.08 1.04.56-.72.72h.4l1.6.4.56-.32-.32.56.88.4-2 .32.16-.48-.56-.48-.32-.4-1.28 1.28 3.12 3.2 1.92-.32-.08-1.12 1.6-1.44-1.2 1.44 1.04 3.36-.64.64.32.8h.48l-.24 1.12-1.28.56 1.04.32 2.88-1.68 2.72 2.96.88-2.96.64.56.16.56-.32-.56-.48.24.48 1.28 2.88-1.84-.32 1.44-1.28 1.68.88.72-.88.08.08 2.32-1.84.64-.88 2.08-.48-.48-3.44 2.16v2l-.96-.56v.56l-.64-1.2-1.52.24-3.76 2.72-.16.88.64-.24-.08-.64 1.04.64v-1.44l.56 1.28h1.12l.8-2 1.28.4-.48.64 3.2-1.68.32 1.04.32-1.04 2-.16.16-.8h.24v.72l.72-.72-.96-.4.56-.64 4-1.76v-1.6l4.56-2.72 2.24-2.88-2-1.2 1.6-2.4.4.4 1.12-.96-.8-1.44h.48l.4.24.24-.24 3.36-4.08 1.2.24 1.36-1.28-1.36 1.68 1.92.72-2.72-.32L50 40.72l-.72 3.92.08.32z"/></symbol><symbol id="icon-state-AL" viewBox="0 0 47 80"><path d="M8.08 65.36l-.4-.24-2.16.24h2.56zm27.6-60.8l-27.52-.4.96 1.36L4 44.24l.32 19.36 1.2-.08 1.92 1.04 1.44-5.28 1.04 1.84-.24 1.36.24 1.04h.96l.72 1.6-3.04.64 4.24-.4 1.12-.64h-.4v-.32l.56.16 1.68-1.52-.4-1.36.4-1.52-2.48-2.56.4-1.6 28.56.16-.08-1.2-1.04-1.28.72-4.64-1.2-3.76 1.2-4.24 1.52-1.36-1.12-.96.08-1.36-1.28-2.56-1.12-3.6z"/></symbol><symbol id="icon-state-AR" viewBox="0 0 76 80"><path d="M5.68 23.28L4 4.48l30 .4h31.04l1.2 2v1.44l-3.12 2.96L62 13.44l9.12-.4.56 1.76-.96-.24-.56.64 1.28.8-3.36 1.68.56 1.36-.4.88.24.88-1.28.64-.08 1.04L66 24l.56 3.44-.48.48h-.8l-.72 1.44-1.28.8.48 1.52-2.48 1.52-.16 1.52H60l-.64 1.6v3.76l-1.2.72-.88-.08v1.6h-.96l-.48 1.44-1.52.72 1.2 1.04-.16 1.04-2.88.96.96.88-.64.96.48 1.04-2.48 2.24 1.04.88-.16.8-1.04.32 1.52 1.6v1.68l-.72.8.96.88.24 2-.96.56V64h-41.2v-9.36l-1.92-.72-2.88.4.08-.4h-.72l-.8-1.2z"/></symbol><symbol id="icon-state-AZ" viewBox="0 0 59 80"><path d="M54.4 14.48V5.2l-41.68-.56-.48 8.24-.64 1.68-.96.16L9.6 13.6 8 13.2l-1.36.4-.32.96.64 1.52-.32 3.76.72 3.2-.64.8.24 2.64 1.52 2.56.32 1.84 2.16 1.92-2.4 1.6-1.2 1.6.24 2.56-.48 1.68-1.04 1.12-.8.4v.8l.32 1.36-.08 1.2 1.6.72.24 1.6-.72 1.36h-1.6L4 51.12l32.96 12.96 18 .08z"/></symbol><symbol id="icon-state-CA" viewBox="0 0 67 80"><path d="M38.72 63.76L37.52 62h-.24l.8 1.68zm-7.04-3.12h-.32l.8.32v-.24zm7.04-1.04l-1.52-.32 1.04.96h.64zm-10.24-4.08h-1.2l.56.96.8-.48zm-1.6-.16l-.48-.24-.32.24.8.16v-.16zm2.88-.16l-.72-.08.88.72 1.52-.48-.16-.24zM27.6 6.64l-.08-7.68H5.12L5.04.4l.4.72L6 2.88l-.96 4.8.48-.56-.96.96L4 10l.08 1.36 2.08 1.76.96 2.08-.32 2.24.56 1.92v1.2L10.64 24l1.52 2.48-.8-.72-.16 1.68.4-.64 2.32 1.76.4-.4-.4-1.76.72-.08 1.28.8.8-.72.64.72 1.28-.72-.4.72.88-.64.96.72-1.2-.72-.24.72H16l-.4-.08-.8.08-.16.32.48 1.2.72.56.88 1.92h-.56l-1.44-1.04-.08-1.44-.72.24v1.84l1.2 2.8 1.04 1.2h1.28l.8.88-.4 1.44-.64.16.48 2.24 2.08 2.08 1.36 2.32 2.24 1.68v1.44l1.52.4v4.32l.8.48 5.2.32 1.92.96 1.04 1.2 1.92.64 1.76-.16.72 1.92 1.52-.08 3.76 2.56 1.44 1.92.48 2.88.72-.32.16.48-.64-.16.64.96 15.52-2.72.08-1.68-1.2-.56L60 58l1.2-.96-.16-2.96 2.24-2.72-1.52-.96-2-3.52-31.92-26.72z"/></symbol><symbol id="icon-state-CO" viewBox="0 0 80 80"><path d="M85.28 19.04l-.4-14.72-39.68.64-38.88-.8L4 63.28l42.72.88 40.64-.88z"/></symbol><symbol id="icon-state-CT" viewBox="0 0 94 80"><path d="M36.88 4.48l-21.6-.96-3.12 44.96 2.72 4.64L4 59.52l3.36 5.6 2-1.04.8.8 2.56-1.36.32.48.8-1.6 1.36.08 5.68-3.6 2.64-1.36 1.52.48 1.44-1.76.56.32 2-1.36.96 1.12 1.28-.56 3.2-2.48 1.84-.4 4.32-5.12.24 1.76.88 1.12h3.44l2.88-.56 2.24.64 1.28-.8 2.56-.64 2.8 1.12.88-.32.56.64 2.4-1.76 3.76.56.96-.72-.8-.56.56-1.28-1.84-2.48 2.16 1.04v2.16l2.56 1.6 2.8-1.68 1.2.64.4-1.6 3.68.88 1.12-2.48 2.08 2.08 3.2-1.52h3.52l1.12.56-.64.96 1.36-.48.64-4 1.04-1.36.4-6.4-.64-29.76-42.32-.16-.08 1.28-1.84.16-.24-1.44z"/></symbol><symbol id="icon-state-DE" viewBox="0 0 34 80"><path d="M16.32 3.84l-2.24-1.36-3.76-.08-3.44 1.52L4 7.6 6.48 64H28.4l.24-.32.96.32-.48-7.2-1.2 2.08-1.04-.96-2.96.88.72-.88h-.72l.56-.64 2.48-.88.72-.56-1.76-.96h1.04l-.56-1.76h1.68l.48.56.08 2.16.4-1.68-.4-4.72-.24-.72-2.96-.24-4.96-5.36-.24-2.72-1.76-3.2-.88-.56-.48-4.24.16-3.84-.96-2.56-1.04-1.44-1.12-.24-3.2-6.16.88-2.48L11.6 14l-1.44-1.44.48-1.84 1.52-.72 2-2.88.48-1.76z"/></symbol><symbol id="icon-state-FL" viewBox="0 0 73 80"><path d="M53.76 65.28l-.56.24-.16.08h.72v-.32zm.8 0l-.48-.08-.32.4zm1.84-.72v-.32h-.24v.24zm-.88-.32l.16.4-.56-.08-.48.72 1.12-.64zm.56 0l-.08-.08h-.24v.4zm3.6-.08l.32-.08v-.24l-1.04.24zm-2.48.4l-.16-.48-.32-.32.4.88zm3.76-.8l.08-.56-1.04.88zm1.12-.72v-.32l-.56.4zM63.52 62l.32-.32-.4.32h.08zm-3.6-3.68L60 58h-.32v.32h.24zm-.24-.48h-.4l.32.16zm6.4 1.68l1.04-1.92-1.04.64v.64L64 61.68h.24zm1.28-2.64l.24-.32.08-.16-.4.64zm.48-2.56v-.4h-.08l-.08.4h.16zM57.12 53.2l-.4-.56-.32.24v.32h.72zm-.96-.64H56l-.24.08.4.32v-.4zm-1.6-.08h-.48l.16.16zm1.12.08v-.08l-.16-.24v.4zm-5.2-5.92l-.72-.72.4.72 1.04.24zm.32-.4l-.32-1.68-.64-.08.72 1.52zM49.36 44l-.24-.48v.88zm-2.96-5.92l-.56-.96h-.24l.8 1.04v-.08zm21.28 1.44l-1.6-5.12-.8-1.44 1.44 4.24zm-4.16-13.44l-.08-.48-.88.88.88 2.88v-1.92zM45.6 24.16v.16h.24v-.16h-.24zm0-.16h.24l-.24-.24V24zm-2.88-3.76l-.08-.32-.16.24v.08h.24zm-17.6-5.84h-.96l.64.48zm1.04.64l2.48-1.44-2.72 1.36h-.8l.48.32zm3.12-1.52l.4-.4-.88.48zM12.8 6.8h.32l-1.44-.24-5.2.56h.4zm35.52 26.48L46.4 36h.16l-.64.08.48.4h-.8l.24.24-.64-.48.32.48 1.04.72.08 1.12 2.16 4.48 1.36.4-1.04-2.4 1.04 1.04 1.76-.64-1.12.88.16 3.6H52l.32-1.04.96-.48-1.84 2.24 1.04.24v-.56l.24.56.56 3.6V50l.48 1.2.8.24-.8.72.96-.32 2.4 1.12 1.52 2.64.32 1.76 2.08 1.28-.8.24h.32l-.88-.56-.4-.48-.64.96.32.72.72.64 1.84-.8 1.36.32 1.92-.88.08.48.48.24-.08-.48-.4-.16.48-.08.4.56-.24-.56.88-1.2.32-2.56 1.12-2.8v1.36l.96-10.24-.96-3.2-1.52-1.04 1.04.32v.16l-1.28-3.12-.32-1.76-2.96-6.88-1.28-4.08.96.4-.08 1.44h1.44l-.32 3.76 1.76 3.52-1.36-3.52V27.6l.56-.64-.96-1.76-2.48-4-2.8-7.28-1.2-6.72-.96-.64v-.8l.64.96V4.96L52 3.92l-.56.48v3.76l-.96.08-.72-2-22.48-2-1.04-2.8-22-.96L4 1.84l1.84 1.84-.4 1.6.64.56L4.56 7.6l2.24-.56 1.04-1.28-.32-1.04.96 1.12.4-1.44.48.56-.4.48 1.04.72-2.56.88 3.68-.48 1.44.16.8-1.04.8.08v.48l1.6-.48.64.4.32.96-1.12-.56v.56l-.4-.56-.56.48-1.44-.32 3.84 1.36 2.88 1.6-.32-1.04-.72-.16.72-.4.56.48 1.12-.48.24.4-1.6.72 1.36.8.64-.32.08 1.28.8-.24-.56.32-1.92-1.36 2.72 2.72.32.72-.32 1.28-.72-1.84.48 1.36.24.48 2.88-.32 1.28-.64-.16.48 3.28-1.52 1.12.16.16-.16v-.32l-.96-.4.08-.32.88.32-.48-.56 1.76-.64.32.48 1.36-.32 2.88 1.76 1.12 2 1.28.64-.16 1.28 1.52 1.12 1.52 2.48h2.24l.56 1.92.72.88v1.04l-.64-.08.64.8-.4 2.64-1.68 5.52 1.04 2.08v-.48l-.64-1.04 1.28 1.2.8-1.6-1.2-.64.48-.32h-.32v-.48l1.28.56.08 1.36h.64v-1.04h.4zM62 39.52l1.12.96.4 1.2-.72 2.88-1.44-.72-1.76-1.92z"/></symbol><symbol id="icon-state-GA" viewBox="0 0 60 80"><path d="M49.52 60.64v-.88l.48-2.08-.88 1.04zM10 37.92l-.24 1.12 1.04.88-1.52 1.44-1.44 4.56 1.12 3.68-.88 4.72.88 1.28.16 1.52 1.44 3.44 29.92 2.32.8 2.56 1.44-.08.48-2.72-.32-2 .72-1.12 5.36 1.44-.32-1.84.48.08-.16-.88.56-.64-.64-.4.64-.4-.64-.88.96.88.16-1.44-.4.72-.48-.72.4.16v-1.2l.32-.08.56.96 1.12-1.44-.64-.88-1.76-.64 2.4.4-.64-1.2.64.48 1.2-2.08-1.44.72.24-.56-.64-.24 1.44-.64-.48-.56.88.96.24-1.44v-.4l-.08.4-1.04.24.48-.64-.88-.72 2 .32.8-1.2-1.28-.24.56-.4-.32-.32 1.6.4.48-.4-.4-.48.4-.48.4.24.72-.64-3.44-1.68v-2.48l-.64-2.08L50 35.84v-1.68l-1.36-3.92L46 28.8l-.24-1.04-.88-.4.16-.72-.96-.64v-1.44l-2.8-1.76-.96-2.24L37.04 18l-1.68-2.72-1.68-3.76-1.84-.56-1.44-1.44-1.84-1.44.32-1.44 2.24-2.32L4 3.84l3.68 27.28.88 3.76z"/></symbol><symbol id="icon-state-HI" viewBox="0 0 109 80"><path d="M90.48 42.16l-5.28-2.32.88 5.28-4.24 4.64 2.88 13.84 4.4 2.88 16.24-12.24-7.68-8.96zm-18.08-7.2l-.48-1.68-2.16 1.36.8.48zm-6.32-4.48l.56-2.56-3.84-.48 1.52 3.04h1.76zm5.6-5.44l-2.32 2.24 5.44 6.48 7.76-2.72-4.48-4.16-4.56.8zm-12-3.84l-1.04 2.48 10.72-1.28h-3.28zm-12.56-7.36L46 11.52l-5.84 2.8 3.12 5.28 2.08-1.6 5.44 2.32-.48-3.44zM4.32 9.6l2.4-2.32.24-1.76L4 7.92zM20 1.36l-4.24-.08-3.92 3.92 6.4 3.2z"/></symbol><symbol id="icon-state-IA" viewBox="0 0 82 80"><path d="M72 26.16l-.8-2.32-3.6-.8-.8-.96-1.28-5.76 1.04-2.4-1.28-.64-.8-2.24-28.96.32-30.72-.4.56 1.92-.56 2.08.96.4.4 1.36L4 22.48l.96 1.36.48 2.24.88.4.56 4.64 2.08 3.04v1.36l.8 1.36-.4 4.16 1.2.24v.88l.96.32-.72 2 1.2.32-.72 1.6.8.56-.4 1.68.64 2.64-.48 2.48.96 1.12v.96l20.56.64 26.72-.8 2.88 3.2 1.36.08-.4-2.72 2.88-1.68.8-2.72 1.68-2.08-.4-2.16-1.68-1.52.8-3.04 3.6-.56 3.12-1.44.96-1.04.32-2.32 1.36-1.2.4-3.2-.24-1.04-2.8-2.08-.48-1.84L72 26.88v-.72z"/></symbol><symbol id="icon-state-ID" viewBox="0 0 48 80"><path d="M43.68 41.52L41.6 39.2l-.8 1.04.32.88-5.12-.16-.88.96-2.24-.32-.72 1.12-.88-.88-.96-2.88-1.2-.08-.72-.72V36.8l-1.68-2.64-.56-2.64-.96-.88-2.08 1.92-1.6-.88.4-1.2-.4-.64 1.04-.88-.64-2.56.4-.24.88-4.4-1.6.16-.56-.88-.72.32-3.12-5.12-2.4-1.68.4-.4-.4-.64.16-1.36-2-2.88.48-8.8-5.92-.4L6.08 23.6l1.2 4.32 1.52 1.52.72 1.44L6.64 36l-.16 1.28L4 40.72v1.68l1.36.4.64.8-1.2 3.04L4 63.2l20 .8 20.08.08z"/></symbol><symbol id="icon-state-IL" viewBox="0 0 44 80"><path d="M37.04.72l-24.4-.4 1.68 1.76.16 1.36 2.08 1.68-.32 3.12-2.32 3.44-2.24 1.12-2.96.16-.64 2.08 1.04 1.36.24 1.68-2 3.44-2.16 1.12.08 2.16-.96.4L4 26.32l.16 2.96.96 3.36 5.2 5.28.96 4.32.64.4 1.44-.88 2.56 1.28-.4 2.56-1.76 3.52.08 1.36 2.16 2.4 1.76.72 3.76 3.36v1.68l.48 1.6-.48 1.44.96 2.48 1.12.64-.32-.72.4-.16.96 1.2h.4l-.48-1.04 1.68-1.84 4.4 1.84.72-.24-.32-3.52 3.6-1.2-.64-1.68 1.04-1.52-.48-.72h.48l-.48-.8h.48v-1.84l.88-.32-.64-.16.88-.88-.72-.72.56-.88.72.32.96-2.08 1.04-.48-.16-.72 1.44-2.4-.24-2.16-1.36-1.92.8-1.04-.32-1.36.88-.32-.08-27.76-2.64-5.92V.72z"/></symbol><symbol id="icon-state-IN" viewBox="0 0 51 80"><path d="M46.24 2.16v-.8L21.2 1.28l-2.4 1.28-2.96.8-1.6-.32-.08-.88-.4.4-.88-.88L12 40.32l-1.12.56.16 1.92-.8 1.44 1.6 2.64-.24 1.36.48 2L10 53.2l.08 1.28-1.52.48.08.56-1.12 2.08-.24-.32-.48.64-.48-.32-.72 1.12.72 1.04-1.2 1.04.8.32-.88.4v2.4L4 64.16l1.04 1.04-.88.32L6 66l.56-.72-.24-1.12.24-.4 1.44.56 1.6-.16v1.12h.64l.48-.96-.08-1.28.48.88 1.92-.4 3.36 1.76.48.8 1.36-2.16 2.56-1.2.48 1.2 1.6.4-.08.48.4.4.48-1.04.88-.32.08-1.84.8-.4-.08-1.28.48.72 1.28-.8-.88-.64 1.36.56.32 1.52 2.72 1.76 1.52-1.12.32-2.48 1.04-1.76.8.32 1.44-.72.8-2.4.96-.16 1.28-1.52-.48-2.64 2.48-.24 1.04.64 3.04-1.68h1.76l.16-1.52-1.12-.32.72-1.12-.72-1.36.72-.56z"/></symbol><symbol id="icon-state-KS" viewBox="0 0 98 80"><path d="M93.76 56.8l-1.04-32.32L90 23.36l-.96-2.48-2.32-2.24 1.44-2.96 1.12-.08-1.12-2.48-1.44.64-2.56-2.08-38.96.48L6 11.12 4 56.56l45.04.96z"/></symbol><symbol id="icon-state-KY" viewBox="0 0 93 80"><path d="M4.96 50.32v-.96H4v.96h.96zm54.4-34.16l-.96-1.04-1.52 1.28.56 1.12-.56.8 1.04.32-.48 1.6-1.28-.24-2.72 1.36-.72-.72-2.08.32.32 2.32-1.84 1.28-.88 2.08-2 .48-1.12 3.44-1.36.72L41.6 30l-.32-1.28-1.04-.56.4.72h-1.2l.08.96-.88.4v1.28l-1.12 1.28-2-2-2.32.96-1.12 1.68-3.04-2.16-1.76.48-.56-.96v1.6l-.56.4-.32-1.04-1.28.4-1.36-.88.16 1.28-.48.72-.96-.32-1.44 1.92.72 2.4-4.64 1.2-.16 1.2.64 2.4-.64.88-4.32-2.32-2.08.48-1.28 1.44.48 1.6-.24 3.04L8 49.36l-1.68-.88-.72 1.84 15.6.8-.32-2.72 2.64.88 45.92 1.52 6.8-2.4.72-1.44 2.08-.8 2.08-3.2 3.52-2.08 4.32-3.6-1.92-.48L84 33.44l-2.8-4.72.72-1.2-.16-2.48-2.48-2.08-.72-2.32-1.6.4-1.28 1.36-1.76.24-2.4-1.44-2.08.96-1.6-1.6-3.92-.88-.96-2.8-1.36-1.04z"/></symbol><symbol id="icon-state-LA" viewBox="0 0 80 80"><path d="M46.32 65.36l.48.16h.48l-.4-.16h-.56zm4.08-.24l-1.68.56h.24l1.12-.32zm3.36.24l-.64-.24-.8-.08.72.32h.72zm1.68-.32l-.4-.24-.4.56zm-2.32-2.56l.24-.32h-.24l-.08.56zm6 .24l1.04-.56-.32-.32-.72.56v.32zm1.52-1.2h-.08l-.32.16.08.16zm9.84-3.28h.32v-.4l-.72.56zm-12.64-.08v.4l1.44.48-.16-.48zm13.92-.56l.24-.16.32-.64zm-37.28 1.28l1.12-1.68-2.88-.96-1.52.88 2.72 1.76h.56zm39.6-3.92l.4-.72.08-.32-.8 1.2zm-7.04-1.2l-.56-.56-.24 1.04.4-.48.4.48v-.48zm1.28-.64l-.08.08.88.56v-.88zm.8-1.84h.56v-.32l-.56.08v.24zm-.72.16l.4-.48.32-.56-.8 1.04h.08zm7.04 1.44l.08-1.6-.08-1.2-.88-1.04.88 1.92-.56 2.64zm-8.48-4.8v-.24l-.16.16zm2.8.56l-.4-.24.96-.96L68 49.12l1.36-.08.4.48.56-.4zm-60 5.6l5.2-.08 6.88 2.8L27.28 58l3.52-.8.48-.64-1.04.24-.48-1.12.56-.48-1.04.4-.4-1.04.88-.16v.56l2.16-1.52h1.76l-.08 1.68 3.04-.48v1.6h1.12V58l1.92-.4v.64l1.84.64.4-2.08h.32l-.32 2.24 2 2v1.12l-.4.24-.24-1.36-.72-.08-.08-.56-.96.96-.64-.32.24.8.48.56 2.88.96.88-.56.16.8 1.76.72.56-.96.8.32-.4.72.64.24 1.44-.96.08.48.32-1.68.56.24-.24-1.36 1.6.32.48-1.12.88 1.84.64-1.04.72 1.12.48-.48.24 2.8 1.76-1.04.88-1.28h-.48l-.16-.8 1.12-.32-.48-.8.16.32v-1.52L56.4 58l.4-1.04.64.88.4-.24 2.4 1.28.96.16.08-.48h.64l-.32.64.96.16.24.96-1.04.72h1.92l.88-.4.32 1.36h2.08l-.48.16L68 64.64l.8-.64v-1.04l.32.8.32-.4-1.76 3.76 1.44-2 .64-.32v-.64l1.76 1.6-.16-.64.4-.8.32.32-.08-.88.32.64.72-1.04-1.04-.08 1.12-.32-.4-.56-1.52-.24.48-.64-1.2-1.2-.72.56-.4-.56-1.44-.24.48-.48h-2.56l.08-1.04-2.24-.88L62.64 56l1.92.16-1.2-1.36 2.96 1.2-.48-.88h-.88l-.08-.72.72-.48.64-1.12 1.04 1.04.96-.4-.48-.72.56-.8h-.88l.32-.48-.48.32-.32-.48.8-.32-1.12-.48 1.12-1.12-.72.16-.8-.48-1.2 1.04-.4 1.84-.96.32-.72-.8.24-.48-1.6.08-.32-.96.64-.64 1.04.24.96-1.68-.32-.32h-.56l.48.32-.88.64V47.6l-.72 1.04-1.28-.64-1.44 1.52-2.16.48-3.28-.88-.72-1.04.4-1.04 2.96-2.8 1.84.4 1.04 1.44 3.28.48.48 1.04 1.6-.32v.4l.88-.56-.64-.4-1.52-3.52-1.76-1.92-.72-1.76 1.44-4.96-26.08.32 1.12-1.04-1.04-3.2 1.6-.32.4-1.92-.4-1.44 1.28-1.12.96-4.08 3.44-2.96v-2.08l.88-.08 1.52-2.4-2.48-2.56V10l-.96-1.36 1.36-.88-1.36-.8 1.2-2.4-1.2-.8-.08-.64H4.32L4 19.04l2.8 3.36.08 3.2 1.28 1.12-.32.64 1.36 1.6-.32.88.96 1.92.72.24-.16 1.36.72.88-.96.48.56.96-.56 2.16-2.32 3.84.48 1.52-.64 1.6.48 1.6L8 49.44 6.88 50.8l.48 1.44-.56.96-1.2.24-.16.48.64 1.28 1.76-.8z"/></symbol><symbol id="icon-state-MA" viewBox="0 0 112 80"><path d="M105.52 62.88l-.88-.56.48 1.04-1.28 2.48 1.76-1.52-.72 1.52-5.68 1.04 5.04 1.2 2.88-.72zm-12.56.88l-.24-2.56-1.36 1.6 1.36 1.2zm-4.24-4.24l-1.92.72-2.72 3.28-2.48.72 1.92 1.6 2.96-1.6 4.64-.24-.24-2.08-1.76-.56 1.04-.64-.48-1.04-1.2.96zM106 56.24l1.12-3.12-.48-.88-1.28 4.16zM80.24 5.36l-1.76-.48-4.16 2.56-1.92.16-1.76 2.48-2.96 2L11.92 9.6 4 35.6l.88.96 19.6 1.2v.96l1.2-.16.24-.8 39.44.8.48 4.56.88.4.48 4.32 2.64 2.8.48-.88h1.36l1.76-2.72-2.24 4.8 1.68.56.32 5.84.64-.56-.4-.72 1.12.4.48-1.12.56 1.12-1.04.8 1.04.08 2.64-.88 1.36-3.92 1.76 1.52-.16-1.44 1.28-1.12 1.04.48.8-1.68h.72v-2.24l1.76 1.2.24-.96.64.56-.88 1.84.16 3.92-1.12 1.92 5.28-1.2 2.48-3.12.8.88 3.76-1.28-.16 1.52 2.64-2 6.88-.64.24-4.72h-1.52l.4-2.4 1.36.64-1.92-5.36-2.24-2.72-2.96-1.84h-1.92l-.72 1.12 2.08 1.68.48-1.44 1.92.56 1.12 6 .8-1.84 1.44.96-.96.24.88 3.6-.88.96-6.4 2.72-2.56.4 1.52-.64-3.68-.56-2.88-1.84-.8-.8-.48-4.72-2.16-.72-2.32-2.16h.96l.48-2.08.96 1.92-.72.16 1.44-.16-4.4-8.48-4.48-3.2.96 2.24-2.8.72-.08-1.36-1.12-.32.4-1.04-1.36.24-.24-.96.88-.32-1.12-.72.48-.48 1.44.48-.48-.88 1.2.88-.08-3.04 2.08.24-.8-1.44L81.2 20l-.4-1.04-1.04.56.48-1.04 5.12-1.92 3.12-2.08-.8-2.24-1.6 1.04v1.44l-.56-.8-1.68-.24-.32-.72.8-.16-2.48-1.44v-1.28l1.68 1.28-1.04-2.48-2.16-1.76h1.52l-.08-2.16z"/></symbol><symbol id="icon-state-MD" viewBox="0 0 100 80"><path d="M76.64 57.12l-.8-1.36.56 1.36-.96.56.88.48zm-.32-4.64l-.48-.88-1.04.4.48.48h1.04zm16 3.28l1.2-.96 2-6-1.84 3.6zM96 47.52l.48-2.72h-.24l-.64 2.96zM9.44 10.88H4.56L4 24.56 8.16 22l4.08-4.24 1.12-.4 1.68.72 3.28-2.96.8-1.92.64.8-.32.96 3.52 1.28h2.24l.8-.8-.48-.48 1.04-.4L26 14l3.28-.4 1.92-1.76.88.08 3.52 2.64 2.4-.08.32.64-.88.48.48 1.2.4-.56.32 1.12h1.04l-.72 1.36 1.2.72-.16 1.68 3.84 1.6 1.92 1.44.24.88-1.12 1.44 1.28 1.92 3.68.96.8 1.68 2.72 1.28 1.36-1.6 2.8 2.96-2.4 2.24.16 2.24-1.84 1.04-.56 1.52-1.12.48.24.72-1.28.48-.64 2.4.64 2.24 1.76-.16.88-2.08.56 1.36.88-1.76 3.04 5.04.96.32.08-.64-.8-2.48 1.12.96 1.12 3.2h3.12l2.24 2.96.16-.88.88.64.08-1.92.96 2.72 2.16 1.44-.32-2.8-1.36-2.16.16-1.68h-1.6l-1.04-1.6-2.24-1.44-1.28-3.2-.16-3.68.96 4.96 4 3.92 1.44-.32-.24-1.6-2.48-3.36v-4.64l-.88-1.12 1.44-2.24H65.2l-.24-1.12 1.36-.4-1.36-1.68 2.08.8-2.64-3.36.56-.48 1.76 2.16 1.2-.64-2.24-1.76 2 .56L66.8 26l-.56.4-2.8-2.72.88-.48 3.12 1.84.8-.8-1.2-.56-.8-1.44 1.52 1.44-.56-1.52 1.28.08.8-1.12-1.52-1.04L69.6 20l.8 2.24.72-.8-.48-.96.56-2.64.56 3.04 3.04-2.56-1.12-.96.8-1.76 1.84-.16 1.04-.96-1.44 3.6 3.6-3.12-1.12 1.92 1.04 1.36-1.92-.4L75.84 20l3.6.64-5.76.24-1.12 1.28-1.92 4.32 1.12 3.2.8-2.32 2.24-.48-2.16 2.24v1.44l-1.44.16-1.6-.8-.64 3.84.64.4-.16-1.36 1.76-1.52 1.36.8v1.12l.56-.48v.56l.88.48-1.44 1.68.64.64.8-.64-.08 1.04-1.36.08-2.08-1.76-1.44 4.16.88-.32.56-2.56v1.84l1.2-1.36.4 2.16.56-.8.4 1.28.96-.24-.88.88 1.36-.16.32.96 1.12.56 1.36-1.52-.24 1.2-1.6 1.04-2.4-.72v-.88l-2.56.32.64.72-.72.96 1.76-.64.48.32-1.44 1.36-.24 1.44-.56-.88-.8.8 2.16 4.08.32-2.16 3.76 4.32v-2.08l.8-1.28.64-.32.08.48-.96 1.12.88 1.6 2.24-4.32-.96 3.84 1.68.96L78 52l-.16 1.52 2.96-.56.48.08-1.76 1.6 2.24-.64-2.88 3.36.88-.16-.24 1.68 1.68-1.04 2.88.08.48-.8 5.04-.88.56-1.6 1.6-.88.64-3.28 1.12-.48-.32.8.8-.32 1.12-2.16.4-.72-.96-.32.08-1.12-.96-.48h1.44l-.08-.64.56-.24-12.96.24-2.08-33.68z"/></symbol><symbol id="icon-state-ME" viewBox="0 0 52 80"><path d="M28.4 52.72l.24-.72-1.2-.48.16.88zm2-3.04l-.48-.64-.4 1.76h.88L30 50zm4.56-1.2l.24-.64-1.12-1.36-.96.32-.72 1.68 1.12 1.2.48-.32-.32-.88h1.28zm-8.08-44L26 3.76l-.24-2.4-1.84-.4-8.16 11.28-.56 4.24-1.2 1.04-1.12 2.08.32 1.12-.64.96-.08 1.44.48.8-1.6 1.92v1.2l-2 .88-1.44 2.24.88 1.52-.8.24-1.04-.56L6 34.24l-.96-1.76-1.04.64.48 28.96L6 64.4l-.16 1.2.72 1.36.4-.4.64.32 1.6-3.84 2.32-1.76-.48-.24.4-1.04 1.44-.48v-.8l-.88-.48.56-.16.64-1.52 2.24-1.36-.32.4.64-.32-.88 1.52 1.04-1.2-.56 1.52 1.28-1.04v-.88l.56 2.56.48-.64-.48-3.76-.48.4-.08-.32 1.12-1.2.08 4.48.64-1.36-.4.32-.24-.88 1.44-2.08-.24 1.04.24.48-.24.96.64.16v.56l.08-2 .72-1.12-.16 2.8v-.96l.4.96 1.44-3.36v1.2h.88l-.32.48 1.04-.96-.4 1.2.8-.24v-.8l1.52-.88-.08-1.2 1.36-2.8-.56-1.44 2-.88v-1.36l.56.48-.72 2 .88-.56.48.48-1.2.64-.16.8.88-.16 2.24 1.28-.4-2.56.88-.16.24.32-.24-1.44h.56l.16 1.36.56-1.04.96.32-.16-1.2.88.88.16-.88.24 1.04.24-.56.48.32.64 2.32.88-1.2L36.8 46l.64-.4.4 1.36.32-1.28.08 1.36.72-2.72.4-.24v1.04l.72-1.04.08 1.52.56-1.04.8.56.32-1.76 1.28.56.08-.8.4.96.56-.56-.56-1.12.88-.24.4 1.36.16-.4.96.08 2.16-2.64-.96-1.04.24.96-.32-.88-.96 1.12-.48-1.52.88.32v-.88l.64.16.24-.48-1.36-2.96-1.2-.32-.64.64-1.44-1.52.32-1.76-.8-1.68.8-.72v-.8l-1.84-.4-2.32-1.44.4-2.96-.48-17.84-2.08-2.08-3.12-2.08-1.28 1.12-.96-.4-3.92 2z"/></symbol><symbol id="icon-state-MI" viewBox="0 0 72 80"><path d="M62 59.68v-1.2l-.32 1.2H62zM37.28 27.52l.32-.24-.32-.32-.32.32zm1.12-.88v-.56l-.56-.32v.88h.56zm1.12-3.68l-.32-.24-.24-.32.56.88v-.32zm2.32-2l.32-1.92h-.64l-.56 1.6zm6.48-2.24l-2.24.32.32.24-1.2 1.2v1.36l.64.88.8.24-3.44 1.44-.32 3.12-1.04 2.8.32-2.8-.88 2.56-.32-.8.56-4.08-2 2.88-.88-.24-1.04.88-.32 1.6-1.44.88.32 3.44-2.32 3.12.88 3.12-.88 2 1.44 4.32.88-.32-.64.56.64 2.56.24 3.36-1.44 4.88-2.24 4.24-1.68 1.44h17.28v.56l11.12-.56 2.24-3.36-.32-.88.64-2.08 2-1.36v-1.68l.88-.64-.32-.56 1.36-.24v1.44l.88-.88.88-4.56-2.24-8.8-.88-1.68-1.68-1.12-2.56 1.12-1.12.8h.56l-1.2 2.32-.56-.32-1.12 1.44-2-1.12.64-3.12 1.92-.88.56-2.32 1.44-.8.32-5.12-1.44-2.24.24-.88 1.2.56-.88-2.8-4.56-2.32h-1.44l-.8-1.36-2.32-.56zm2.32-.32H49.2l1.12.88h.64zm-8.24 0l-.24-.24h-.32l.32.56zm8.56-2l-.64.32h.88l-.56-.32h.32zm6.72-.32l-1.6-1.04.24.56-1.68.8 2.48.56zm-4.8-2.48l-.32-.56-.24-.64-.24.64zm-.32-1.2l-.24-1.12.24-.8-.48-.24-.56.8.8 1.36h.24zm-19.04-1.36l-.8-.8.32.8h.48zM18.8 4.48l.32-.88-.88-.24h-.32v-1.2l-2.56 2.32-1.12.32-2.32 1.44-2.8.32L4 9.36l1.44.56.8 1.92L14 14.48l1.92 1.12 2.56.24 3.12 1.12v1.44l2.32 1.52-.56 3.36h1.68l-.64 1.92.88 1.2v-.88l4.24-5.6.88-2.64v2.64l.88-.64.88-1.44h1.68v1.2l-.56-.32-.8 1.44.8.48.8-1.6 1.2-.64.88-1.44 2.48.32.32-.56 2-.32.88-1.04 4 .72L48 17.84l.64-2 .88.56.56-.32 4.56.32v-.32l-1.44-1.04.24-.56-1.6-.56.48-.32-1.36-2.8-1.76.8-.56-.8-1.36.48-1.76-.48.56-3.2-4.24 1.12h-4.88l-3.92 2.88-.88-.8-.88.48-.88-1.04-1.6.56-1.2-.32-2-3.44-1.2-.8-2.48-.32-1.44.8 1.12-1.36-1.92 1.2-.56 1.04.24-2.56zM25.04.24l-.8-.56-3.52.56-2.48 1.92v.88l1.44.56-.56.64.56.8 1.68-2.56 2-1.36-.56-.56z"/></symbol><symbol id="icon-state-MN" viewBox="0 0 64 80"><path d="M18.24 4.48L18 3.04 4 2.56l.8 4-.4 1.28v4.32l1.76 5.92L6 24.8l.4.8-.24 3.12 1.44 5.44-.32 3.44-2.24 2.64L6.16 42l1.12.56.64.96-.8 20 20.8.48 21.04-.08-.48-4.4-.8-1.28-2.16-.64L42 53.68l-1.6-.4-.72-1.12-1.52-.4L36.32 50l.48-1.76-.4-1.52.4-.72v-1.52l.64-1.68-.64-1.52-1.04-.08-.24-1.36 1.68-2.32 3.12-2.08v-6.4h.48l.96-1.6 4.4-3.52 4.96-5.6 9.12-4.48-1.68-.24-.96.32-1.6-1.28-4.48.64-1.04-1.68-2.8 2h-2.4l-.8-.4-.32-.96-1.84-.56-.64-1.2-1.52.24-.16.88-.48.24-.96-2.32-1.52-.16.4-.88-2.24-.8-2.16-.24-1.44.4-.4.64-1.92.08-.88-1.2-5.36-1.12-.72-.64v-.96h-.96l-1.04-1.2zM19.6-.8v2.24l.96-.48.32-1.04-.16-.64z"/></symbol><symbol id="icon-state-MO" viewBox="0 0 81 80"><path d="M50.88 8.56l-3.2-3.44H22.96L4.08 3.76 4 4.48l.64.64L4.96 8l1.92 1.2.56 3.04 3.36 2.48 1.6-.4.8 1.04v1.28H12l-1.6 2.56 2.24 2.32.56 2.48 2.48.96-1.92 37.76 51.12 1.04L66 65.52l-.08 1.2-2.72 2.4-.72 1.84 7.44-.08 1.28-2.08-.96-1.68 1.6-.16-.88-.96 1.2-.8-.48-2.4h.72l.32 1.44 1.12-2.48 1.84.72.88-2.56.08-3.12H76l-.88-1.52-.64.24.32 1.04-1.04-.64-1.84-3.04 1.2-1.92-1.2-2.16v-1.76l-4.48-4-2.16-.88-2.64-2.8-.16-1.76 2.64-6.88-3.36-2-1.2 1.04-.88.08-.96-1.6-.88-3.92L51.6 18l-.96-2.16-.72-4.4z"/></symbol><symbol id="icon-state-MS" viewBox="0 0 49 80"><path d="M35.12 65.04l.48-.24-.56.24h.08zm6.16-.24l-.64-.08.16.32zM34 64.56v-.16l-1.04.32.72.4zm6 .24l-1.76-.4h-.72v.16zM42 .56L20.32.32l.4 1.2-2 1.28-.4 1.28-.88.08-.32 4-1.04.64h-.96l-.16 1.12h-.4l-.72 1.04-.8.72.72 1.28-2.48.88.56.88-.24.64.16.96-2.08 1.76.88.48-.24.8-.64.16 1.2 1.36-.8 2 .8.56.32 1.52-.96.72v1.68l1.04.72-1.04 2.08.96.96-1.12.8.8 1.04-.24 1.36 2.4 2-1.52 2.32-.88.16.24 1.6-3.12 2.4-1.12 3.44-1.12.96.48 1.12L5.52 50l-1.44.4.88 2.88-.96.56 22 .56-1.2 4.08.56 1.6 1.52 1.52 1.2 3.52h1.36l.24-.72 1.28-.8-.48-.48.4-.48 1.04.88 4.32-1.28-1.28-.16.64-.4 2 1.28 1.76-.56 1.44 1.12.8-.64-.96-20.56L44.8 1.68 43.84.56H42z"/></symbol><symbol id="icon-state-MT" viewBox="0 0 80 80"><path d="M86.72 41.84L84.4 11.2l-39.6 1.2-40-1.84-.8 10 2 3.2-.08 1.44.4.8-.72.32 2.64 2.08 3.6 5.92.64-.48.64.96h1.76l-1.76 5.12.64 2.56-1.12 1.28-.16 1.92 1.6 1.04 2.4-2 1.36.96.32 2.96L20 51.76v1.6l1.92 1.12 1.12 3.12 1.12.96.48-1.28 2.72.4 1.28-.96 5.52.32-.32-.96.96-1.12 2.24 2.72.08-5.12h25.44l24.8-1.12z"/></symbol><symbol id="icon-state-NC" viewBox="0 0 104 80"><path d="M73.52 55.6l-.8.48-.24.4.56.16zm1.12-3.36l-.24.16-.32.96.16-.08zm5.2-4.56l-1.2.24-1.28 1.04-.64.72 1.2-1.12zm8.8-1.76l-.4-.48-.88-.24 1.04.72h.24zm-1.76-.72l-.56-.16-1.76.16-2.08.72 2.96-.72h1.44zm1.92 1.12L90.16 44l1.92-2.4L90 43.84zm4-5.12v-.32l1.04-.72h-.48zm2.32-1.92l1.52-1.04-2.24 1.2-.4.56zm4-1.44l.48-1.52.4-3.28-.88-2.48.56 2.8-.24 3.52-2.4 1.52zM98.08 30l-.4-1.36-.8-.08.8 1.28zm-2.16-6.48l-.96-2.96.8 3.2 1.44 3.6-.32.08 2.24 3.04L96.88 26zm-1.36-2.96h-.88l.32.64h.72zm-45.2.64l-15.92-1.36-.56 3.36-1.92.48-1.92 2.64-1.6-.72-3.84 2.48-.8-1.36-1.84 1.84-.88-.48-1.2 2.08-1.92.4-3.68 2.4-4.24.4-1.36 1.2-.72 1.92-2.4.4L4 40.16l13.28.4 7.92-2.48 14.24 1.2v1.04l1.36-.64 1.52 2.24.08 1.6 12.24.56 11.92 12.4 2.08-1.2 3.68.8 1.04-1.52-.32-2.48.64 1.2-.16 2.16 2.08-5.12 2-1.92 1.76-.72-.72-1.2.72-.48-.56-1.44 1.2 1.36-.72.72.8.4 1.92-1.6V44.4l.48 1.04 2.08-.72h2.16l-.88-.32 1.04-.56.56 1.2.16-1.52 1.2 1.04 2.48-3.04-.96-.8.4.64-1.44.56.08-1.76-.4 1.36-.88-.16.32.72-.96-.72-1.28 1.12-2.24-.96-1.44-2.24 3.36 2.08 2.4-1.76-.16-.8-1.2.16 2.08-1.44-5.28-1.92-1.04-1.36 4.96 1.68-.56-1.68 1.92-.24-1.2.56 1.04 1.36.72-.96.64 1.52.16-.72 2.16.72 1.36-.88 1.44-3.12.48.88 1.12-.88V30l-1.28-1.92.16.56h-.8l.32.72-.72-.56-.56.48-.32 3.2-1.2-.56 1.2-.16-1.04-1.2h.72v-2.48l-2.48.16.24.56-1.76-.72-3.2.56.32-.72-.8-1.6.16-2.56.64.48-.32 1.36.32 1.76 1.12.56 2.96-1.2-1.76-1.6 2.64 1.52-.72-1.68 1.36 1.2 1.12-.48-1.44-2 2.96 1.92-.64-1.84L96 26.72l-1.44-4.56v.8l-.56-.48v-.32l-.64-.56v-1.04z"/></symbol><symbol id="icon-state-ND" viewBox="0 0 89 80"><path d="M84.48 56.32l-.72-5.76-2.32-4.88.16-4.4-.8-1.04-.8-9.36-3.04-8.08-.64-6.16.4-1.68-1.36-5.36-34.96.8-34.32-.96L4 56.48l40.4.96z"/></symbol><symbol id="icon-state-NE" viewBox="0 0 90 80"><path d="M73.44 21.44l-1.2-.4-.64-1.6-3.92-1.12-1.52-1.28-5.12.4-1.44 1.04-4.48-2.4H29.84L5.12 15.2 4 39.6l18.64.8-.32 12.16 32 .24 31.44-1.12-1.04-.56-.56-2.48-1.68-.64-.64-2.48-1.6-2.48-.24-5.68-.64-.48.48-1.04-.88-.24.24-1.36-.8-.48.08-.64-.8-.16V30l-2.72-4.56-.64-3.84z"/></symbol><symbol id="icon-state-NH" viewBox="0 0 41 80"><path d="M30.32 1.36L30.08.08 28.8 1.52 26.16.32l-2.24 1.6.64.56L22.4 7.6l.4 2.56L20.64 14l1.52 3.76-.8.4-.24 1.36-1.28 1.6-3.04 2.56-2.32.16-1.04 1.44-.24 4.4-1.12 2.4.32.72-1.52 2.24-.48 2.4-1.68 1.6-.48 2.72-1.2 1.28-.24 6.4-.64.96-.64 6.16-.8.88L4 59.68l.08 1.12 1.6 2.56 21.04.72 1.84-1.28 1.04-1.52h1.28l2.64-1.76 2.08.16 1.76-4.16v-.4l-.88.16.24-.56-1.52-1.92v-2.08l-2.8-3.68.48-4.16z"/></symbol><symbol id="icon-state-NJ" viewBox="0 0 42 80"><path d="M29.04 53.84l1.28-1.52h-1.28l-.64 1.52-1.68-.64.88.64h1.44zm2.88-4.24l2-2.88.72-2.96-3.52 6.48zm4.96-34.72l1.28-3.52.72-2.24L21.84-.72l-2 .64-1.52 1.36-1.44 4.32-2 2.16-2.16 2L14 12.72l-.64 2.16h-1.28l-.8 1.36v4.96l2.08.72 1.52 3.52h.72l.56 1.36 4.96 5.76-.56.72-3.68 2-3.52 2.96h-.64l.64 1.36-1.28 1.44-3.76.72-2 .64-2.8 5.68.56 1.52v1.36h-.56v.64l3.52 4.32.64-.72.64 1.36h1.44l1.52 2.16.8 1.52 1.92-.72.88.72h2l.72 2.16-1.44 2.08v2.8l1.44-.56 2.24-1.6v-.64l2-2.08-1.28-.72h1.28l.72-2.16 2.08-2.16h-2.08l.8-.8h1.28l1.44-2v.64l-.64 1.36 2.96-1.36-.8-1.36h-.88v-1.52h1.68V49.6h.64l1.28 1.36-.64-1.36 3.52-4.24v-2.24l1.44-3.52-.72-.72.72-.64-.72-.72 1.28-.64v-1.6l.96 1.6-1.52 6.24h.56l.96-6.96v-1.52l1.28-5.6v-3.6l-.56.64-2.96-1.36h-1.44l-1.36-.64v-2.16l1.36-2.72 1.44-2.24v1.36l2.24-1.36z"/></symbol><symbol id="icon-state-NM" viewBox="0 0 62 80"><path d="M26.48 59.6l-.8-1.84h32.08l-.16-52.4H32.24L6.72 4.4 4 64.08l7.36.32.32-4.8 15.44.56z"/></symbol><symbol id="icon-state-NV" viewBox="0 0 50 80"><path d="M45.84 55.84L45.04 4l-19.92.16-19.76-.88L4 30.16l37.92 36.32.32-1.84-.56-2.8-.72-5.12 1.28-.48h1.44l1.28 1.04.48-.16z"/></symbol><symbol id="icon-state-NY" viewBox="0 0 92 80"><path d="M64.48 64.08l-1.2.16-.72 1.84 1.92-1.2v-.8zm8.96-.4l-1.04.24-2.48.56 1.76-.16zm.96.24l3.92-1.84-5.44 2v.16zm9.52-7.04l-1.04-.16-2.96 2.4-5.28.32-1.12.8-2-.56.4.72-.8-.72-.4.8-1.44-.08-.32 1.12-.72-.88-.16 1.04-.24-.24v.64l-1.84.16-1.28 1.84.4 1.04 1.36-.32-.24-.56.8-.32.8.56-1.84.8 3.68-.48-1.44-.32 11.6-2.96-.96.56 9.28-4.4-2.72 1.04-.72-.8-.08.56-1.44-.08-1.44 1.84h-1.84zm2.56-1.84h.16l.56-.56-.96.4zM13.92 28.88l-1.04-.48-.08.88.48.4zm28.16-12.72l.16-.08v-.48l-.72 1.04zm1.6-4.24l-.56.16-.16.24.96-.24zm1.68-.88l-1.28.4.16.64.64-.64zm10.96-8.96l-4.08 2-4.56 3.84-1.6 2.96-5.2 3.44.56 1.36.96-.64.88.4-.88 1.04 1.52-.32-1.68 2.16-.16-.72-.64.72.8 2.96.24-.24-.08 1.04-.88.96-1.6-.16-3.04 2.64-2.32.4-.32.8-4.08-.88-2.32.56-1.68-1.44-6.48-.96-7.36 1.28-.08 2.56 1.84.8-.56 1.04.4 2.8-1.68.88-1.28 1.92-6.72 4L4 43.04l46.88 1.84.88 1.76 1.92.8.08 3.04.72 1.52 2.64 1.04.48.96 8.48 5.12-.8-3.84.56-.72.64 4.16-1.36 4.4.88-1.44 1.28-.16-.16-.64 1.84-1.76-.88-1.44L70.72 56l-.8-.96.48-11.44 2.48-9.36-.24-11.36-.4-1.04-1.12.72-.16-.56.56-2.48-.8-3.92 1.12-2.56.4-2.96-.8-2.4.08-4.8v-.8h-15.2z"/></symbol><symbol id="icon-state-OH" viewBox="0 0 64 80"><path d="M59.6 26.48l-.56-22.32-10.4 4.48-4.8 3.92-3.68-.16-5.28 1.92-1.2-.24L32 12.72l.96 1.04-2.32-.72-1.6.72-1.68-.64 4.48-.72-1.92-1.36-.48.88-1.28-.08-1.2-1.36-4.72-1.84-16.8.16L4 52.32l1.36-.8 1.2 1.2 2.24-.4 1.92 1.52 1.2 3.28 1.68.88 1.44-.16 1.36.32 2 2.24h.88l.32-.72 1.36-.48 2.08.88.72.96 2-.16 1.6-1.68 1.68-.56 1.04 2.64 1.68.96 1.28 1.92 3.52-.48.56-2.4 1.52-.4-.48-2.88 2-3.6.72-.32.72.48.64 1.92.88-1.36.88.16-.24-1.6-.64-.8.88-.24v-1.2l.96-1.68h1.28l.32-1.2 1.2-1.04h.64l.72 1.04 1.84-.88 4.48-3.92.4-1.68-.4-.88.88-1.68-.16-.88h.64l.16-2.56 1.6-4-.32-1.04.32-1.84-.88-1.68z"/></symbol><symbol id="icon-state-OK" viewBox="0 0 90 80"><path d="M83.52 21.04l-.16-5.92-39.36.56-39.68-1.2L4 20.32l28.32 1.04L32 43.92h.96l2.16 2.4 2.48.16.48-1.12 1.68 1.76.08 1.04 4.48 1.2 1.28-.32.96 1.04 1.44-.8h2.4l.16 1.44 1.28.24.32 1.52h.8l2-1.52 2 2.08 2.16-.96.72 2.16.64-1.76 1.44-1.04 1.68 1.2 1.52-.56.08.56 2.56 1.68.56-.64 3.2-1.6 1.6.24 1.68-1.2 1.04 1.04h1.36l1.36-1.2 2.4 1.2 1.12 1.12 3.84 1.2-.32-20.24z"/></symbol><symbol id="icon-state-OR" viewBox="0 0 63 80"><path d="M14.64 13.92l-.8.32-.64-.08-.64-.8-1.28.4-.48-.16-.56.08.48.48-.16.32-.08-.56-1.12-.56.32 1.76-.4.8-.08 1.68.32.88.4-.16-.56 1.04.56.72-.4.16-.16-.64-.16.96.32.32-.56.72.08 1.68-.72 3.04v1.76l.32.24h-.32L8 29.84l.4.48-.32-.16-.32 1.12-.8 5.6.48-.32.4.32-.56-.24-.4.8-.88 2.4.96-.96.24 1.04-.48-.4-.64 1.2L6 40l-.32.24-.64 2.72L4 44.88l1.04 1.84-.32 2.8.4 2.16.96 1.12 25.84.56 24.56-.4-.88-17.2.56-1.84-.24-.8.56-.64-.64-.88-1.44-.08-.16-1.04 1.04-3.28 1.2-1.6v-1.04l2.24-5.36-.72-1.68-1.36-.64-.88-1.52-13.92.4-.56.56-3.2.24-4.24 1.84h-2.56l-1.76.88-1.68.08-.88-.72-3.36-.24-3.04 1.44-3.04-.96-.88-3.84-1.44-1.12h-.56z"/></symbol><symbol id="icon-state-PA" viewBox="0 0 78 80"><path d="M73.52 27.28l-.48-1.36-2.96-.88-.88-1.44-.48-3.68-1.84-.8-.24-.88-.96-.8H13.92v-4.16l-4.24 2.16.56-.8-1.68 1.28-3.52 1.52L4 53.04l57.44.24.8-1.36 1.28-.64 2 .4 3.52-1.44.24-1.12 4.48-3.36-3.04-3.68h-.64l-.64-2.24-1.36-.16-.08-1.92v-.96l1.04-.64.48-1.2-.96-1.92 2.16-2.16 1.84-3.2z"/></symbol><symbol id="icon-state-RI" viewBox="0 0 48 80"><path d="M18.88 67.04l1.28-.88-.96-1.92v-2.32l-.96-.32v1.84l-1.36.72-.48 1.6.24.88.64.56zm9.76-22.56l1.28-1.36.72-4.16V36.8l-1.12-.64-.88 3.68.64.64-.96.96-.08 2.56zm8.56-2.72l.24-7.92.8-3.84-2.64 2.24-.64 2.64-1.6 1.92v1.52l-.88 1.84.88 1.92-2.24 1.28-.32 1.52.48.32 1.36-1.2 1.04.32 2-2.4 1.76.56zm6.32-1.04l-.32-5.84-.64-1.04.64-3.84-3.52-1.28-.72 2.32-.16 3.12.88 6-.32 1.28.8 2.48zM29.68 12.88L29.04 4l-22.48.4.08 36.08L6 47.76l-.64.32-.72 1.6L4 54.96l4.72-.88L18 50.8l2.48-.16 2.56.88.56-.24L27.04 44l.08-1.36-.08-3.68-1.2-2.64 1.84-2.72.32-1.36-.88-2.8-1.36-.72 1.36-1.28 1.2.4.96.96 1.28-2.56-.48-.88-1.2-1.36v-5.52l1.04 1.92.88 3.36 1.12.96 1.44.8.48-2.4.8.4-1.28 4.72.48 1.84 1.76-.4 1.36-1.12.24-2.24-1.6-2.8-2.96-2.32-1.12-1.2.32-6.72z"/></symbol><symbol id="icon-state-SC" viewBox="0 0 85 80"><path d="M68.24 46.08l.32-.72v-.32l-.32.32v.72zM19.76 3.84l-.24-.32-.64.8-4 .88-1.04 1.04L8 7.52l-3.2 3.36-.8 2.16 2.96 2 1.92 2.24 2.96.8 2 5.52 1.84 2.32.56 1.68 4.8 3.68 1.52 3.2 1.84.72 2 2 .16 2.16 1.36 1.12-.16.88 1.2.96.16 1.04 4 2.32.32 2.16 1.52 3.52v2.24l3.36 2.8 1.12 3.2-.48 2.48 1.36 2h1.2l1.84 1.04 1.68-4.16.16.8-.72 1.84 2.32-2-1.84-2-1.12-4.32 1.2.96.48 2.56 1.28 1.12v-3.04h.4l.32 3.76 2.8-1.2.56-1.68-1.84 1.2 1.44-1.36-2.16-.64 1.84-.4-3.36-.32.08-.48h2.32l-.16-.88 2.48 1.68.48-1.12.56.96 2-1.52-.88-1.28 1.36 1.12 2.72-.8-.24-.72 1.2-.16 1.2-.96.16-.72-1.68-.8h.64l-.32-1.36h.88l-.24 1.04 1.36.8 3.84-3.12.32-.4-.64.4-.32-.4.64-1.52 1.04-.48.48.88 1.68-.4.32-.96 1.2-.88-.72-.96 1.04.64v-.8l.8.48.56-.8-1.84-2.24 1.12-2.16.56-.64-1.2 2.48.88.32.48 1.52.8-3.84 3.04-4.48 2.8-2.56 3.04-1.36-.48-.64.48-.16-17.6-17.28-18-.48-.08-2.64-2.32-2.88-1.84.88-.16-1.68z"/></symbol><symbol id="icon-state-SD" viewBox="0 0 73 80"><path d="M66.72 15.2l-30.24.56-30.56-.88L4 49.12l23.6.72h24.08l4.08 2.48 1.36-1.2 4.96-.16L63.44 52l3.6 1.28.8 1.36 1.28.24-.64-1.6-.88-.96 1.2-4.4-.16-1.04-.8-.08.4-1.84-.64-1.28 1.2-.08-.96-20.96-.96-1.12-1.28-.24-1.2-2.16 1.68-1.92z"/></symbol><symbol id="icon-state-TN" viewBox="0 0 104 80"><path d="M78 19.28l-45.76-.48-2.48-.72.08 2.64-15.28-.48-.64.8-.72-.8.16 1.52-1.04.56.72 1.12-1.52.08.88 1.44-1.12 1.52.4 2.08-.96-.4.32 1.12-2.56 1.28.32 2.56-2.4 2.24.48 3.12L4 40.24l40.16 1.28 26.8-.24.4-3.28 2.32-.4.72-2.24 1.36-1.12 4.48-.96 3.44-2.72 2.08-.4.72-2.32 1.28.32 1.92-1.84.64 1.36 3.92-2.8 1.52.48 1.84-2.8 1.92-.4.48-3.68z"/></symbol><symbol id="icon-state-TX" viewBox="0 0 82 80"><path d="M56.88 62.56l1.68 4.72-1.44-7.04-.24.08-.16.16zm.88-4.48l.32-.8.8-1.68-1.12 1.68-.88 2.8zM59.6 54l-.56 1.6.8-1.12v-.56zm1.04-.72l1.76-.88-2 .88-.56.88zm2.4-1.6l-.4.08.88-.4zm8.48-6.48h-.4v.24l-1.36 1.44zM40.72-.72H24.8l-.88 29.68L4 28.16l.32 1.12 6.48 6.96 2.4 1.52 2.64 6.64L22 48.56l1.36.32 1.68-1.84.96-3.36 1.6-.16.48-.64.96.4 4.16.24.56 1.36.64-.16 3.2 3.04 2.32 5.52 1.2 1.2 1.44 2.4 1.92.96.4 3.6 1.44 1.68.8 2.64 1.6.16 3.92 1.76 3.12.16 1.84 1.44.16-.72 1.12-.56-.32-.4-.24.24.16-.56-.72-.08-1.68-4.64.48-.48-.48-.64.64-1.76H54.8l.72-.16-.72-1.12.88 1.12.72-.8-.32.96.64-.24 1.04-2.56-1.68-1.28 2 .24.96-1.84-.72.72-.24-.96.96-.56.32.72.32-.16.72-.72-.08-1.36.8.8 1.28-.72-.8-.08.4-.48-.88-1.28 1.04.32-.16.72.4-.4.08-.32-.32-.64.24.08.24.56 1.04-.32.32.32-.48.32L64.8 50l-1.28 1.36 2.8-1.76-1.2.4v-.08l2.96-1.44 1.44-1.44v-.8l1.6-1.04-.56-.48-.8-2 .96.24.72-.56-.32 1.52 2.08-.4v.16l-1.44.56-.24.96 3.84-2.48 1.12-.32-.48-.88 1.2-1.6-.48-3.28 1.2-3.12-2.24-3.44v-1.36l-1.36-1.2-.64-10.32-1.92.24-4.8-2.48-.64.72-1.2-.24-1.12.48-.72-.24-2.16 1.28-1.76-1.04-.8.32-.8-.56-1.2 1.52-.32-1.28-1.28.8-1.28-1.12-1.36.64-1.04-1.6-2.16.72-.48-.72-3.04-.48-1.28-1.36-.24.32h-1.2l-2.08-1.2z"/></symbol><symbol id="icon-state-UT" viewBox="0 0 56 80"><path d="M18.88 16.4l.16-.24-.16-.24-.08.08zm3.36 1.52v-1.2l-.64-1.2v1.28zm-1.36-3.12l-.24-.64-.4.16zM9.04 4.32l-3.36-.16L4 63.76l23.84.4 23.84-.4-1.2-47.6-18.08.24V4.56zm7.04 4.4l.8-.56.72.56-.32 1.68.8.8 1.12.16L20 14l.64-.4-.4-2.64 1.04.16v.64h2l-.4.64-1.28-.08-.72.8.56.08 1.36 2.4 1.6 1.2-1.76 1.12-.56 1.2-1.44 1.04-.56-.24-.8-2.8-.48 1.28-.72-1.28-1.2-.8-.08-2.16-.56-1.04-.64-.72-.56.72-.4-.16.64-.56-.64-2.4.4-.4-.4-.48z"/></symbol><symbol id="icon-state-VA" viewBox="0 0 92 80"><path d="M81.84 51.36l-.4.16.32.32h.08v-.48zm.88-8.16l.08-.24v-.72l-.56.96h.48zm.88-2l.32-.72.16-.08-.56.64zm2.64-6.56l.56-1.36-2.64.24-.96 1.28.72.8-1.2.4-.16 1.6-1.12.88-.8 3.68.64 2.16.56-.96.32.56.56-3.44.88-.64-.4-.16.4-.56.48.72.56-.48zm.96.16l.8-1.92-1.52 2.16h.4zM62.08 19.6l-4.64-3.52-.8 3.52-4.32 4.56-1.28-.72-2.88 5.36-2.16-.72-.24-1.2-1.12-.48-1.52 4.16-4.88 7.2.56.8-.72 1.36-1.6 1.12-.72-.56-2.16.96-1.12-.4-.24 1.12-3.52.8-1.44-1.12-2.16 1.52-3.44-2.16-.24-2.08-3.76 3.04-3.44 1.76-2.08 2.88-2 .4-.72 1.2L4 49.92l35.68 2.16h20.64l20.32-.24-.16-.56.8.56v-2.4l1.28 2.4-1.52-4.64-3.28-.4.16 1.2-.8-.4-1.52.4.56-1.2-1.84-1.12-.24-1.76-.64.4-2.32-.96-.56-.72-.56.32-1.92-.4.16-.56 2.08.8.32-.56.72 1.12.8-1.12 1.28 1.68.88-.4 2.4 2.96 1.04-.4.4-1.12-.64-.08.24-.48-.8-1.04-1.52-.4-2.72-3.04.16-.24 3.36 3.28.88-.32-.72-.48.32-1.52 1.44 1.6.16-2.32-1.52-.24.96-.56-2.4-.8-4.16-5.44-1.92-.96.72-.16 1.2.96 4.4 5.44.4-.64 1.6.8-.4-2.72.96.4v-1.12l-2.8-1.36-.72-1.6-1.36.08-2.08-.8-1.2-1.36.56-.24-.24-.72-3.2.72.72-.32-.88-.8.56.4.72-2.96.64.08.16-.8.96-.56v-1.92l-2.16-1.84-2.24-.96.48-1.2-1.12-1.04-1.68-.24z"/></symbol><symbol id="icon-state-VT" viewBox="0 0 46 80"><path d="M41.76 12.4v-.56l-1.84-4 .48-1.76 2-2.64-.48-2.16.56-1.12-36.4.32.16 1.76-.88 2.4.88 1.92-.96 4.56L6.96 16l-.88 2.48.16 3.28-1.12 1.28L4 26.88l1.36 7.84L4 39.52l.24 1.12 1.28-1.52h.88l1.28 2-1.04 20.72.72 1.6 16.08.72-1.52-2.88-.24-1.28.64-2.72.96-.96.88-6.8.64-1.36.32-7.04 1.04-1.6.56-3.04 1.84-1.92.72-2.72 1.6-2.56-.4-.64 1.36-3.04.16-4.8 1.28-1.76 2.4-.16 3.6-2.8 1.52-2 .16-1.44z"/></symbol><symbol id="icon-state-WA" viewBox="0 0 88 80"><path d="M10.8 50.24l.16-.48-.32-.64-.32.88zm13.12-9.76l.32-.48-.32-.32-.48.32zm-1.6-.8V38.4l.16-.48-.8.96zm4.48-3.36l-.32-1.44-.48.8-.16 1.76.64-.96.24.16-.4.8 1.12-.64zm-.56-2.88l-.56-1.6-.32 1.6.88.48v-.48zm-1.6-6.72l-.4-.64-.08-.24.08 1.44zm.88-5.2l-.8.16-.96 2.32.88 1.2h.56l.48 2.48h.8l.8 1.2.16-1.6-1.2-1.04-.4 1.28-.32-2.88-1.36-.64 1.2-1.2.88.32zm-2.56-1.04l-.32-1.52-.56 1.28 1.04.96zm1.68-1.2l.08-.32-.48-.56-.08.48zm-3.12.32l-.96-1.44-.8.24.32 1.6 1.6.56zm1.44-2.88h-.8l-.8.96.16.72.16-.48.48.56.64-.08-.32-1.52.8 1.52.64-.88zm2.4.96l-.24-.48-.72-.8v.32zm-4.16-5.12l.16-.16h-.64v.32zm59.2-.64l-27.12.8-29.12-.16.08.48-.64.32.56.32.56 2.72.96-.56.8.4.48 2.64-.24.24-1.04-.48.8 1.92-.8-.48v.48l-.56-.8-.72.24.24 1.04.24.4.8-.48.32.96 1.44 1.12V24h-1.2l.08 1.6 1.44 1.12-1.04-1.6.24-1.12.72.24.08 2 1.6.96-1.2 1.2-.96 2.16-.4 2.08.96.88-.08.48-.72-.08.8 3.2-1.04 1.44-1.04-.8-.48 1.6-1.6 1.6-.96-.96-.32.48V40l-.48 1.6-.32-1.28-.8.8.8-1.44-1.44 1.28.64-.64h-.64l.16-.16.96-.48 1.76-3.2.32 3.36.48-2.56.96-.96v.48l-.56 1.12 1.2.64.64-3.84-.48-.96-1.28.8.48-.8-.56-.64.08-.48.96 1.12-.56-2.32.56.72.48-.8.8-.16-.64-2.32-.72-.56.4 1.92-.64-.48-1.44 2.72-1.92.96-1.76 3.04.64.32 2.24-.96-2.4 1.28-.96-.16 3.36-5.76-.16-1.12.32.64.32-.96v2.4l2-2.88-1.68-3.04.16-.88-1.12.32.48 1.12-.48.72-.4-1.68-1.2.88-1.28-1.6.48-.48-1.44.96-6.72-.96-7.68-3.68.64.96L4 24.48l.4 2.32 2.88 5.36.24 4.32 1.12 2.56v3.84l.96-1.76 1.04 1.12 1.76.48-2.32.8v.96l-.96-1.12.4 2.72L11.6 46l1.28.96-.72.08-.56-.48-.16 1.52-.64-.4.4 1.12-.24 1.2.96.72-.8-.24-.48.72-.8-3.76-.72 5.36.96-.48 1.52.96 1.76-.72.88.64h1.68l1.44 1.6 1.92-.4 1.44.88 1.76 2.4.64 4.96 4.8 1.28 5.04-2.24 5.44.32 1.28 1.28 2.56-.32 2.88-1.28 4.16-.16L52.32 60l2.96-.56.96-.8 4.88-.48.96-.72 22.24-.88-.96-1.44.48-.96-.48-1.44-1.12-1.6z"/></symbol><symbol id="icon-state-WI" viewBox="0 0 67 80"><path d="M61.6 24.48l-.88 1.36-1.2.48-.24 1.68-1.04 1.28-.08 1.04.72.96 1.52-1.84-.08-.56 1.36-1.84-.56-.56.56.16-.08-1.44.64-.16-.16-.56h-.48zm.96-1.68l-.32.96h1.04l.08-.88zM25.28 4.08l1.44-.8-.16-.48-2 1.6zM27.04 2l.24-.32-1.28.48 1.04.24V2zm-2.56-.16l-.64-.4-.8.4-1.44 1.12-.96-.4L18.72 4l-3.68 1.12-1.68.16L12.08 4l-1.2 1.52h-.64l-.16 8.16-.72.64h-.72l-2.88 1.6L4 18.8v1.84l1.28.08.8 2.08-1.12 1.76v2.32l-.48.72.48 2.08-.72 2.48 2.16 2 1.92.4 1.04 1.52 1.84.64 1.6 1.44 1.28 2.56 1.52 1.36 2.48.72 1.12 1.28.4 2.72v3.68l.4 1.44 1.12.8-.8 2.16.8 5.12.8 1.2 3.2.8.48 2h29.6l.08-4.08-1.36-3.36-.16-3.36 1.92-6.24-.4-3.28.88-2.32 1.44-1.44-.64-1.76 1.92-6.72-1.12-1.12-1.28.56-1.76 2.64-1.6 1.6-.64.16-.64-.48 1.92-4.8 1.92-1.12.48-1.6-1.28-1.12.4-2.72-2 .16.72-1.68-.08-2.72-.88-.88-2.16-.56.16-1.12-.96-1.04-3.44-.96-2.96-.16-2.72-1.44-9.84-2.64-1.04-2.48-1.52-.4-.24-.72-1.6-.16-1.76-1.36-.24.88-1.52.4 1.76-4zm1.12.32v-.32l-.48-.32-.24.32zm-2.4-.72l.24-.32-.24-.24-.32.4zm5.12-.56V0l-.64 1.12z"/></symbol><symbol id="icon-state-WV" viewBox="0 0 81 80"><path d="M51.6 17.68H36.16L36.4-.08l-2.16.72.88 2.72-.4 1.52.4 1.28-2 4.64-.32 2.8-.72.16v1.04l-1.04 1.92.56.96-.8 1.68-5.12 4.24-2.16 1.04-.72-1.2H22l-1.12 1.2-.64 1.36H18.8l-.96 1.76v1.28l-1.12.48.72 2.8-.88-.32-1.12 1.44-.64-2.24-.88-.64-.8.4-2.4 4.16.24 3.2-1.44.4-.88 2.8-3.76.32.08 3.36L4 46.96l2.32 3.44-.16.72 2.64 4.96 2.64 2.32 2.32.64-.4 1.28 2.16 3.44 2.72 1.6 1.6.16 3.12-2.56 1.84 1.84 5.36-1.36.56-1.84 1.6.88 3.2-1.76 1.28.88 2.32-1.68-.16-1.04 1.36-.96-1.12-1.2 1.36-2.48 3.12-3.6 1.36-3.44 1.68-1.68 2.4-6.08 1.52.48.48 1.6 3.44 1.12 4.24-8.16 1.92 1.04 1.76-2.64h1.04l1.44-1.2 2.32-3.28.24-2 1.2-3.6 7.36 5.84 1.36-3.68-.24-1.76-.88-.48.64-1.04-.88.16-.16-.96-.32.64-.32-1.04.64-.24-.24-.64-1.92.32-3.04-2.08-1.52 1.36-2.16.32.24.48-.48.24.24.56-.4.48-3.28-.4-1.04-.4.16-.72-.56-.4-.48 1.28-2.16 2.16-1.36-.48-.88.24-2.64 3.04-2.96 1.92z"/></symbol><symbol id="icon-state-WY" viewBox="0 0 84 80"><path d="M80.16 35.12l-.4-28.88-36.64-.32-35.2-1.84L4 61.92l37.36 1.84 39.12.32z"/></symbol><symbol id="icon-state-DC" viewBox="0 0 60 80"><path d="M56.4 36.8L22.24 2.56 4 21.12l9.84 8.32 2.24 2.96 10.32 6.48 1.76 16v10.8z"/></symbol><symbol id="icon-state-USA" viewBox="0 0 99 80"><path d="M79.36 58.08h-.08l-.16.16h.24v-.16zm.16-.08h-.08l-.08.08zm.32-.16l-.08-.08-.16-.08.24.32v-.16zm1.68-1.36l.16-.32-.16.08v.08l-.32.72zm-14.4-8.88l1.2-.32h-.24l-1.04.32h.08zm-17.76 6.48l.32-.48v-.08l-.08.08zm1.12-1.04v-.16l-.64.48-.16.24.32-.24zm29.36-3.6l-.24.24.24.48-.08-.4zM61.12 50.8l-.24.16h.24v-.16zm-7.6 0h-.16l-.56.48zm24.24 3.44l-.08-.32h-.16zM49.2 57.76L48.8 56v.32zm-.08-3.2h-.16l-.16.88.16-.56zm32.08-2.4l-.8-1.2.48.8zm-22.24-2l.08-.16-.32-.24-.16.24.24.16h.16zm12.48-1.68l.56-.32-.8.32.08.16zm-7.76.16v-.32l-.32.16zm.72.4v-.4l-.16-.24zm21.12-14.88l.16-.24-.4.24v.24zm.48-.32l.08-.32-.08-.48-.24-.32.24.88-.32.32zm-.4-1.28l-.08-.16h-.16zm-.56 2l.16-.08.08-.08h-.08zm-2.08 1.6l-.08.08v.16zM8.64 37.92l-.32-.16.08.32.32-.08zm.56 1.68h-.08l.32.16-.08-.08zm-.16-1.68l-.24-.16.24.32.56-.08-.16-.08h-.4zm2.08 2.96l-.24-.48h-.08l.08.4zm.16-1.2l-.4-.16.24.08v.24h.32zm73.04-4.32h-.08l-.32.08-.32.16.4-.16zm1.76-10.96l.16-.24V24l-.16.48v-.08zm-.08.4l.08-.24-.24.24H86zm6.96-12.48l-.16-.24-.16.4.24.08v-.24h.08zm-.48.32h-.24v.16l.24-.08v-.08zm-.24.48v-.08l-.24-.08.08.16h.16zm-.4 5.84v.24l-.24.08.4-.08zm-.96.08l-.32.32h.16l.32-.16zm-13.68-.16h-.24l.08.08.16.08v-.16zm4-3.68l-.16.16.08.08.08-.08v-.16zM50.96 8.96l.08.48.24-.08v-.24zm12.88 7.28l-.48.72.16.32.32-.64v-.24h.08zm5.2-2.16l-.32-.24V14l-.16.16.4.16zM68 13.6v-.48h-.16l-.16.16zm-3.84.16L64 13.6v.16h.16zm1.84 1.6l.08-.32H66l-.08.32H66zm1.84-.64l-.16-.08-.16.08.16.08zm-9.92-.96l.24-.08-.16-.08-.24.24zm.24-.24v-.16l-.24.16h.24zM10.08 9.36l.08-.24-.08-.16-.16.4h.16zM62.32 12l-.16-.08-.72.16-.4.48v.16h.24l.08-.08v.16h-.08l.08.24.24-.48.32-.32-.08-.16zM10.16 9.68v-.16h-.08l-.16.32zm50.72.96l-.8.56-.08.24.4-.16h-.08l.48-.32zM10.24 7.6l-.32.32.24.24v.32l.24.16.08-.16-.24-.16-.08.16.08-.4-.16-.16h.32zm.16-.32v-.16l-.16-.08zm-.64.08l-.16-.24v.24l.16.08v-.08zm.4-.24l-.24-.24-.16.24.16.16v-.24l.16.24zm76.96 14.72h-.08l-.16.08zm.24 0l.48-.48-.72.48v.08zm-1.52.24l-.16.08v.32l.16-.32v-.08zm2.64-1.68l-.56.48-1.52.48v.24l-.08-.16v.24l-.32.16-.16.24.16.08.32-.16-.08.16.4-.16-.24.08 1.68-.8-.24.08 1.28-1.04-.32.32-.08-.08v.08h-.32l-.08.32-.4.08zm-3.2 6.64l.08.16-.08-.56-.24.16.16-.16-.16-.16.16.08v-.24l-.56-.16-.72-1.36.24-.56.32-.16.16-.32-.08.32-.4.32-.24.4.08.24.8.48.48-.08V26l.24-.16.24-.72h-.16l.24-.16-.08-.16v-.08h.08v-.24H86l.24-.4v-.16h.08l-.08-1.04-.16-.48v.24l-.48-.16.08-.32.16-.16.16-.56-.32-.64.16.16.16.32-.16.72.16-.16.24-.16.08-.4.8-.64.24-.32.72-.08.24-.16-.16-.08.24.08.24-.16.88-.32v-.88l.24.08h.08l.08-.08-.08.24.08.32.24-.24v.16l.24-.16v-.16h.08l.08-.32h.24v.4l.24-.24.8-.4-.08-.32-.32-.32-.4.08h.4l.08.16h.08v.24l-.32.16h-.4L90.8 18h-.32v-.16l.08.08-.32-.24-.32-.16H90l-.08.16-.16-.16.08-.08v-.24h.08l-.08-.24.4-.24v-.08l-.08.16-.16-.08-.24-.24.08-.72.08.08v-.48l.32-.48-.08-.16.24-.08-.24-.08.32-.56.08.16.16-.32.16.32-.08-.4-.08-.08.08-.16.16.56-.08-.32.08-.24v.24l.24.08.24-.56v.24l.16-.16v.24l.16-.08.08-.96-.08-.08.16-.24v-.16H92v.4l.08-.16-.08.24.56.08-.24-.4h.24l-.08-.24.16.24.16-.24-.16-.08.24.08v-.08l.24.32v-.48l.16.24v-.24l.08.24v-.4l.16.08v-.16l.08.16v-.08h.24v-.16h.08v-.16l.08.16v-.4l.16.24.16-.08.24-.48-.24-.08-.16.24-.08-.24.24-.16-.32-.32-.16.08-.32-.08-.16-.72h-.56l-.88-2.72-.72-.32h-.24l-.72.64-.24-.16-.08-.32h-.24l-.8 1.84.08.56-.16.56.16.48-.08.48-.24.4-.16.16.24.16-.32.08v.32l-.24-.08-.24.16h-.16l-.16.24.08.4-5.2 1.28-.4.4-.56.72-.16.48-.72.64.16.24.24-.16v.16h.16l-.32.32.32.32-.08.24-.32.16-.64.72-1.04.16-.8-.08-1.44.56.08.32.24.08.16.48-.96 1.04-1.12.96-1.44.96-.64.56-.4.08-.64.24-.4-.08.08.08h-.72l.64-.16-.32-.08-.24.08-.8-.16.4-.72-.08-.16.08-.4.32-.32v-.48l.16-.16h.16v.32l.24-.08V20l-.56-1.68-.4-.4h-.24l-.56.32.08.08-.24.48-.32.16-.4-.16.08-.56.32-.24.16-.32.16-.24v-.96l-.32-.4v-.16h.24l-.24-.32-1.12-.4-.32-.32h-.4l-.48-.16-.24.08.08.08-.16.56.24.16-.56.32v.56l-.16.48v-.32l-.24.32-.08-.08.08-.72-.24.56h-.24l-.16.08v.4l-.24.08.08.64-.32.8.08.48-.08.4.48.72.08-.08v.08l.24.56v1.04l-.48 1.28-.56.48-.32.24-.56-.4-.48-.88v-1.2l-.4-.4-.08-.48.32-.96-.08-.4.32-.64-.08-.24.16-1.04-.16-.16-.4.16-.32.64-.16-.08v-.16l.24-.56.24-.24v-.24l.72-1.2.08-.56.08.56.16-.4.48-.16-.24.56.16.16.48-.88h.56l.4-.08.08-.32.88.08.32.24.16-.48.24.16h.08l.8-.16-.24-.32-.32-.08H68l-.32-.48-.4.24-.16-.16-.16.16-.4-.16.08-.56-.8.32-.96.16-.72.56-.24-.08-.08.08-.16-.16-.72.08-.32-.48-.32-.16h-.56l-.16.24.16-.32-.4.48v-.48l-.48-.48-.32.48-.56.32-.72.24-.96.56-.56-.16v.08l-.16.08.16-.56-.08-.08-.8.32-.8.24-.24-.24 1.84-1.76 1.68-.88h-.32l-.24.08-.24-.32-.96.24-.16-.32-.56.4h-.4l-.88-.56-.24.16-.16.16-.16-.4h-.4v-.16l-.8-.08-.8.16-.08-.16-1.2-.16-.08-.32-.4-.24-.4.24-.16-.24-5.6.24-5.6-.08L34 9.6l-5.84-.4-9.04-1.12-8.88-1.6-.08.08.08.48h.4v.32h-.24l.08.24-.24-.16-.08.08.24.08.24.32-.16.16h-.08v.24l.08.16-.08-.32.08-.08.24.48-.48.32v.96l-.16.08-.16-.08-.08.16-.24.24-.16-.24-.08.24L9.2 10l-.08.16.24-.16h-.32l.56-.4v.4l.24-.4v.08l-.16.16.16.08.24-.48v-.08l-.32.08.08-.24.08.16v-.24l.16-.16h.08l-.08-.4v.24l-.32.32h-.32l-.32.4h.48l-.48.08-.08-.08.64-.64v.08l.4-.32-.24-.32.08-.16h-.16v.24l-.08-.24-.08.16-.16-.4-.24.16-1.04-.32-1.04-.72-.08.8.32.72V10l.16-.16.32.32-.32.08.08.16-.24-.24v.4l.48.16H7.6v.48h-.08v.08l-.16-.64-.24.8.64.08.32.08.24.32-.24-.24h-.56l.08.08-.32-.16.08.32-.32.56.08.16h.16l-.24.16.08.24h-.08v-.08l-.48 1.36v.48l-.24.24.16.08-.24.24-.32 1.28H6l-.24.08-.24.4.24-.16v.24l-.08-.08-.16.16-.08-.08-.56.96.16.4-.16.64v.56l.16.24-.16.4.16.24v.48l-.32.72v.24l-.24.4.24-.08-.24.32-.08-.08-.4.48v.4l.56.64.08.8-.08.56v.56l-.08.4.8 1.2.32.72-.16-.24-.24.48.24-.24.56.8.08-.08v-.56h.24l.32.32.32-.24.08.24.48-.16-.24.24.32-.08-.24.24-.72-.24-.08-.16-.24.16-.08.08.08.16v.16l.16.08.16.8h-.08l-.48-.48v-.4h-.16l-.16.48.24.96.32.32.32.16.08.24-.08.4-.32.16.16.56.48.8.16.72.64.56-.08.48.32.24-.24 1.2.32.32 1.52.32.48.4.16.4.56.32h.48l.16.64.4.08.96 1.04.24.64v.72l.24.16v.08l-.24-.08.16.24 4.32.24-.32.4 6.56 3.36 5.12.4.16-.96 3.2.24.32.56.4.32L34 47.6l.72.48.56.96-.16.48.32.64.88.8.48.08.72.48.4.08.32-.32.24-.08v-.24l.32-.88h.64l.08-.32.4.24 1.2.08.24.4.16-.08.08.16.32.16.64.8.08.32.48.96.08.48.48.24.4.8.64.4.08 1.04.4.56.32.88.56.08.24.24h.48l.4.32 1.04.16.64.4v-.16l.4-.16v-.24l-.16.16.08-.16-.24-.08-.08-.48-.24-.32h.16l-.24-.64-.16-.08v-.08l.16.08-.16-.32h.16l.08-.56h-.56l.48-.24v.08l-.16.08.24-.08.32-.8-.32-.16v-.08l-.24-.08.72.08.24-.56-.16.24-.24-.24.16-.24.24-.08.08.24.16-.16.24-.08-.16-.4h.16v-.08l.16.32.48-.32h-.24l.08-.16-.16-.08-.16-.32.4.08-.08.24.08-.08.08-.16-.08-.16h.08l.16.16.32-.08-.08.08h.16l-.16.16.4-.16-.4.32.88-.48-.4.16v-.08l.64-.16.8-.64-.08-.32h.08l.56-.4-.24-.16.16-.08-.24-.08v-.24l-.08-.16.32.08.16-.16.08.08-.08.4.56-.16v.16l-.48.08-.08.24 1.2-.72h.48l-.24-.32.24-.32h.24l-.16.32h-.16l.08.24 1.12-.24 1.04.32.72.08.56-.16h-.24v-.24l-.08.08-.08-.24.64-.08v.24l.4-.16.16.48.24-.08.24.16.16-.32v.32l.32.4-.08.08-.24-.32-.16.24.88.24v-.16l.16.24.24-.08.16-.32h.16v-.24l.16.32.08-.24.16.16.08.32.4-.48V50l-.48-.08.08-.24.48.24h.24l.08.16-.08.08.32-.08v.16h.4l.16.32.16-.16-.24.56.32-.48.16.24.24-.32-.24-.16-.16-.24v.08l-.32-.08h-.32v-.08l-.4-.4.16-.08-.08-.08.4.08-.32-.24.24-.16.24.08h.08v-.16l-.24-.08.16-.16h-.16l.16-.24h-.24l-.32.56-.32-.32.24-.08.08-.24-.16.08-.24-.08-.24.24-.32.08-.4-.08-.08-.24.4-.4 1.12.4.24-.08.24-.4.16.08.64-.32H64l.4.16.32-.16.16.16.16-.24.48.24.08-.96.24.24.08.32H66l.24.4-.48.16.72-.16h.08l-.08-.24h.32v-.32l.16.08-.32.32.32-.08.32-.32-.16-.24.24.24.16-.32.08.08-.08.08.32.16-.56.16.72-.16h.32l.08-.32.24.08.32-.08.16.16h-.16l-.56.16.8.08.8.32-.32-.32.24-.08.08.08.16-.24v.16l-.16.16.24.24.16-.08.08.24-.4-.24.64.48.08.4-.16-.32.08.24.08.08.64-.16.24-.24v.24l.56-.48h.32v-.16l-.32-.08.24.08-.16-.08.4-.32h.4l.64.32.32.32.24.08v.32l.88.64h.4l.4.48.16.96-.16 1.36.24.32v-.24l-.24-.08.32.24.08-.48-.24-.08.16-.16.16.16v.16l.24-.16.16.16-.4.64h-.08v.24l-.08-.16v.16l.32.08.64 1.04h.24l-.24-.32.24.08.4-.16-.24.16.24.88.4-.56-.32.56.32.08.16.8.32.08-.08.16.24-.08.48.16.56.88.48.16-.16.16.08-.16h-.24l-.08-.08-.08.08v.16l.16.16.4-.16h.32l.24-.24h.4v-.96l.16-.56v.32l-.16-2.16-.32-.8-.32-.08h.24v.08l-.48-.64-.08-.32L79.6 50l-.24-.88h.16v.32h.32l.16.8.4.72-.4-.8.08-.48-.32-.32-.72-.88-.96-1.52-.4-1.12-.24-.24v-.08l.08.08v-.32h-.08l-.08-.32.08-.16h-.16l.16-.08-.16-.24.16.08v-.08h-.16l.08-.24.08.08.24-.32-.4-.08h.24l-.08-.16.08.08.24-.4-.24.24-.08-.24.24-.16-.16-.08.24.24v-.24h-.24v-.08l-.08-.16h.32l.16-.16h-.24v-.08H78v-.24l.24-.08-.24-.16.24-.4v.32l.16-.32-.32-.16-.16-.48.16.16.16.32h.08v-.32l.08.4.32-.16v-.16l-.24.16.24-.24h-.32l.16-.16h-.24l.16-.08.48.08.08-.16-.08-.16.16.16.32-.24.16-.16-.16-.08v-.24l.16.24.48-.48-.08-.24.4-.08v-.08l.08-.08.08-.24-.16-.08v-.24l.08-.24-.08.32.16.16v-.48l.56-.8.56-.48h.72v-.64l.08.08v.48l.16-.88.32-.4.24-.24-.08-.08h.16l.24-.32v-.08l.08.08.64-.16h-.08l.08-.24.24.24-.16-.24.24.08.24-.32v-.32h-.08v.08l-.16.16v-.16h-.24l.16.16-.24-.16-.08.24h-.48l-.24-.32.56.24.32-.4v-.08l-.16.08.32-.32-.96-.16-.24-.16.88.08-.16-.24.32-.08-.16.08.16.24.16-.24.08.24v-.08l.4.08.32-.72.24.16v-.72l-.32-.16v.16h-.24v.56h-.24l.24-.08-.24-.16.08-.08v-.32l-.32.08v.16l-.24-.16-.56.24-.16-.8.08.08.08.4.24.08.4-.24-.32-.08.48.08-.16-.24.24.16.16-.16-.24-.32.48.24-.16-.24.4.48-.4-.8v.24l-.16-.32-.08-.08.24.08-.08-.16-.08.08v-.32l.72 1.36.4.24-.56-.8-.4-.56-.32-.72h-.56l.08.24h-.24l-.16.08v-.16l-.32-.24-.08-.16-.08.08-.48-.08-.08-.08h-.4l.4-.16.16.24.16-.24.24.24.16-.08.4.32.24-.08-.24-.4h-.24l-.56-.4v-.16l.64.48h.16l-.16-.32.24.16v-.4h-.24l.16-.08-.4-.08-.88-.8-.32-.08h.08l.24.08.88.8v-.08l.32.08-.08-.56.08.08v-.16l-.48-.16-.16-.24h-.56l-.32-.32-.24.24h-.24v-.8l.32-.16-.08-.32h.08v.4l-.24.32v.4h.16l.24-.32.32.48v-.4l.16.4h.32l.24.16v-.16l.32.16-.24-.4-.48-.24-.16-.48.08.4.56.16-.48-.8v-.32l-.08-.08h.24l-.32-.24h.16l-.08-.16-.24-.08h.32l-.16-.24.16.08-.08-.08.08-.16-.08-.08h.24v.08l.08-.32v.24l.24-.24v-.16l.24-.16-.16.24.24-.24v.16l.08.08h-.16l-.16.24h.32l-.48.16-.16.4.24.24.24-.24-.16.24h-.32v.32l.24-.24.24.16-.16.08.16.24-.32-.16v.4l.08-.24.4.24.08-.16-.08.24h-.4l.08.08h.16l-.16.16h-.08l.32.32v-.16l.24.32.16-.32v.16l.08-.32v.32h.16l-.16.24h.32l-.08.4.4-.08-.16.08.16.08-.16.16v.32l-.16.24v.64l.16.24.08-.24v-.48l.24-.16.16-1.28.32-.56-.08-.16zm-5.76 26l.48-.56.32.08.08.24-.08.56H80zm5.68-24.8l.16-.96-.32 1.04z"/></symbol></defs></svg>